<?xml version="1.0" standalone="no"?>
<!DOCTYPE svg PUBLIC "-//W3C//DTD SVG 1.1//EN" "http://www.w3.org/Graphics/SVG/1.1/DTD/svg11.dtd" >
<svg xmlns="http://www.w3.org/2000/svg" xmlns:xlink="http://www.w3.org/1999/xlink" version="1.1">
<metadata></metadata>
<defs>
<font id="material_symbols_outlined_2Rg" horiz-adv-x="960" >
<font-face units-per-em="960" ascent="768" descent="-192" />
<missing-glyph horiz-adv-x="500" />
<glyph unicode="error_circle_rounded" d="M480 280q17 0 28.5 11.5t11.5 28.5t-11.5 28.5t-28.5 11.5t-28.5 -11.5t-11.5 -28.5t11.5 -28.5t28.5 -11.5zM440 440h80v240h-80v-240zM480 80q-83 0 -156 31.5t-127 85.5t-85.5 127t-31.5 156t31.5 156t85.5 127t127 85.5t156 31.5t156 -31.5t127 -85.5t85.5 -127 t31.5 -156t-31.5 -156t-85.5 -127t-127 -85.5t-156 -31.5zM480 160q134 0 227 93t93 227t-93 227t-227 93t-227 -93t-93 -227t93 -227t227 -93zM480 480v0v0v0z" />
<glyph unicode="add_alert" d="M440 360h80v80h80v80h-80v80h-80v-80h-80v-80h80v-80zM160 200v80h80v280q0 83 50 147.5t130 84.5v28q0 25 17.5 42.5t42.5 17.5t42.5 -17.5t17.5 -42.5v-28q80 -20 130 -84.5t50 -147.5v-280h80v-80h-640zM480 500v0v0zM480 80q-33 0 -56.5 23.5t-23.5 56.5h160 q0 -33 -23.5 -56.5t-56.5 -23.5zM320 280h320v280q0 66 -47 113t-113 47t-113 -47t-47 -113v-280z" />
<glyph unicode="notification_important" d="M440 440h80v200h-80v-200zM480 320q17 0 28.5 11.5t11.5 28.5t-11.5 28.5t-28.5 11.5t-28.5 -11.5t-11.5 -28.5t11.5 -28.5t28.5 -11.5zM160 200v80h80v280q0 83 50 147.5t130 84.5v28q0 25 17.5 42.5t42.5 17.5t42.5 -17.5t17.5 -42.5v-28q80 -20 130 -84.5t50 -147.5 v-280h80v-80h-640zM480 500v0v0zM480 80q-33 0 -56.5 23.5t-23.5 56.5h160q0 -33 -23.5 -56.5t-56.5 -23.5zM320 280h320v280q0 66 -47 113t-113 47t-113 -47t-47 -113v-280z" />
<glyph unicode="qr_code_&#x32;" d="M520 120v80h80v-80h-80zM440 200v200h80v-200h-80zM760 320v160h80v-160h-80zM680 480v80h80v-80h-80zM200 400v80h80v-80h-80zM120 480v80h80v-80h-80zM480 760v80h80v-80h-80zM180 660h120v120h-120v-120zM120 600v240h240v-240h-240zM180 180h120v120h-120v-120z M120 120v240h240v-240h-240zM660 660h120v120h-120v-120zM600 600v240h240v-240h-240zM680 120v120h-80v80h160v-120h80v-80h-160zM520 400v80h160v-80h-160zM360 400v80h-80v80h240v-80h-80v-80h-80zM400 600v160h80v-80h80v-80h-160zM210 690v60h60v-60h-60zM210 210v60 h60v-60h-60zM690 690v60h60v-60h-60z" />
<glyph unicode="flutter_dash" d="M295 320q-3 4 19.5 31.5t51.5 58.5q33 37 77 82q12 18 33 18t35 -16q12 -16 9 -36.5t-22 -29.5q-55 -33 -98 -58q-38 -21 -70 -37.5t-35 -12.5zM430 40q-5 0 -10 2t-8 7q-4 6 -8 16.5t-4 24.5q0 9 1 16.5t3 15.5q-27 5 -45.5 27t-18.5 51q0 4 3 21q-74 26 -119.5 83 t-58.5 147q-5 -5 -11 -8t-14 -3q-15 0 -37.5 22.5t-22.5 97.5q0 69 40.5 124.5t79.5 55.5q13 0 16.5 -11.5t3.5 -22.5q38 54 95.5 89t126.5 43q6 29 29 45.5t49 16.5v-40q4 6 10 10q5 4 12.5 7t17.5 3t17.5 -3t12.5 -7q6 -4 10 -10q-15 0 -25 -9t-13 -22q54 -14 100 -46 t78 -77q0 11 3.5 22.5t16.5 11.5q39 0 79.5 -55.5t40.5 -124.5q0 -75 -22.5 -97.5t-37.5 -22.5q-7 0 -13.5 2.5t-11.5 7.5q-14 -100 -68.5 -159.5t-144.5 -79.5q3 -14 13.5 -22.5t24.5 -8.5h23q7 0 12 -4t7 -10q5 -16 17.5 -30t23.5 -23q8 -7 7.5 -16.5t-8.5 -14.5 q-11 -8 -28 -14t-44 -8q-5 0 -10 2t-8 7q-4 6 -8 16.5t-4 24.5q0 9 1 16.5t3 15.5q-24 5 -40.5 22t-21.5 40q-15 -2 -30 -3t-32 -1q-26 0 -50.5 2.5t-47.5 7.5l-2 -10q0 -17 11.5 -28.5t28.5 -11.5h23q7 0 12 -4t7 -10q5 -16 17.5 -30t23.5 -23q8 -7 7.5 -16.5t-8.5 -14.5 q-11 -8 -28 -14t-44 -8zM750 431q5 20 7.5 42t2.5 47q0 116 -82 198t-198 82t-198 -82t-82 -198q0 -24 2.5 -46t7.5 -42q5 20 13.5 39.5t19.5 36.5q-6 14 -9.5 29.5t-3.5 32.5q0 63 43.5 106.5t106.5 43.5q29 0 54.5 -10.5t45.5 -28.5q20 18 45.5 28.5t54.5 10.5 q63 0 106.5 -43.5t43.5 -106.5q0 -17 -3.5 -32.5t-10.5 -29.5q11 -17 20 -36.5t14 -40.5zM480 240q87 0 146.5 27t92.5 81q0 3 0.5 6t0.5 6q0 30 -7 58t-21 53q-21 -23 -49.5 -37t-62.5 -14q-8 0 -16 1t-16 3q5 7 7.5 14.5t3.5 15.5q1 2 1 4v4q5 -1 10 -1.5t10 -0.5 q46 0 78 32t32 78t-32 78t-78 32q-20 0 -39 -7.5t-34 -21.5l-27 -24l-27 24q-15 14 -34 21.5t-39 7.5q-46 0 -78 -32t-32 -78q0 -41 25.5 -70.5t63.5 -37.5l-30 -33q-18 7 -33.5 17.5t-27.5 24.5q-14 -25 -21 -53t-7 -58v-10q34 -54 94 -82t146 -28zM580 500 q-25 0 -42.5 20.5t-17.5 49.5t17.5 49.5t42.5 20.5t42.5 -20.5t17.5 -49.5t-17.5 -49.5t-42.5 -20.5zM595 590q7 0 11 4.5t4 10.5t-4.5 10.5t-10.5 4.5q-7 0 -11 -4.5t-4 -10.5q0 -7 4.5 -11t10.5 -4zM380 500q-25 0 -42.5 20.5t-17.5 49.5t17.5 49.5t42.5 20.5t42.5 -20.5 t17.5 -49.5t-17.5 -49.5t-42.5 -20.5zM395 590q7 0 11 4.5t4 10.5t-4.5 10.5t-10.5 4.5q-7 0 -11 -4.5t-4 -10.5q0 -7 4.5 -11t10.5 -4z" />
<glyph unicode="align_vertical_top" d="M280 80v640h120v-640h-120zM560 320v400h120v-400h-120zM80 800v80h800v-80h-800z" />
<glyph unicode="align_horizontal_left" d="M80 80v800h80v-800h-80zM240 280v120h400v-120h-400zM240 560v120h640v-120h-640z" />
<glyph unicode="align_horizontal_center" d="M440 80v200h-200v120h200v160h-320v120h320v200h80v-200h320v-120h-320v-160h200v-120h-200v-200h-80z" />
<glyph unicode="align_horizontal_right" d="M800 80v800h80v-800h-80zM320 280v120h400v-120h-400zM80 560v120h640v-120h-640z" />
<glyph unicode="align_vertical_center" d="M280 120v320h-200v80h200v320h120v-320h160v200h120v-200h200v-80h-200v-200h-120v200h-160v-320h-120z" />
<glyph unicode="team_dashboard" d="M200 120q-33 0 -56.5 23.5t-23.5 56.5v560q0 33 23.5 56.5t56.5 23.5h560q33 0 56.5 -23.5t23.5 -56.5v-560q0 -33 -23.5 -56.5t-56.5 -23.5h-560zM400 200v240h-200v-240v0h200zM480 200h280v0v240h-280v-240zM200 520h560v240v0h-560v0v-240z" />
<glyph unicode="horizontal_distribute" d="M80 80v800h80v-800h-80zM420 280v400h120v-400h-120zM800 80v800h80v-800h-80z" />
<glyph unicode="align_vertical_bottom" d="M80 80v80h800v-80h-800zM280 240v640h120v-640h-120zM560 240v400h120v-400h-120z" />
<glyph unicode="bring_your_own_ip" d="M480 80q-82 0 -155 31.5t-127.5 86t-86 127.5t-31.5 155q0 83 31.5 155.5t86 127t127.5 86t155 31.5q19 0 37 -2t36 -5v-223q-12 41 -30.5 77.5t-42.5 70.5q-26 -36 -45 -75t-31 -83h149v-80h-167q-3 -20 -4.5 -39.5t-1.5 -40.5t1.5 -40.5t4.5 -39.5h188q3 20 4.5 39.5 t1.5 40.5t-1.5 40.5t-4.5 39.5h80q3 -20 4.5 -39.5t1.5 -40.5t-1.5 -40.5t-4.5 -39.5h136q5 20 7.5 39.5t2.5 40.5t-2.5 40.5t-7.5 39.5h82q4 -20 6 -40t2 -40q0 -82 -31.5 -155t-86 -127.5t-127 -86t-155.5 -31.5zM170 400h136q-3 20 -4.5 39.5t-1.5 40.5t1.5 40.5 t4.5 39.5h-136q-5 -20 -7.5 -39.5t-2.5 -40.5t2.5 -40.5t7.5 -39.5zM376 178q-18 33 -31.5 68.5t-22.5 73.5h-118q29 -50 72.5 -87t99.5 -55zM204 640h118q9 38 22.5 73.5t31.5 68.5q-56 -18 -99.5 -55t-72.5 -87zM480 162q26 36 45 75t31 83h-152q12 -44 31 -83t45 -75z M584 178q56 18 99.5 55t72.5 87h-118q-9 -38 -22.5 -73.5t-31.5 -68.5zM640 640v240h240v-240h-240zM760 760h80v80h-80v-80z" />
<glyph unicode="discover_tune" d="M520 600v80h120v160h80v-160h120v-80h-320zM640 120v400h80v-400h-80zM240 120v160h-120v80h320v-80h-120v-160h-80zM240 440v400h80v-400h-80z" />
<glyph unicode="album" d="M480 300q75 0 127.5 52.5t52.5 127.5t-52.5 127.5t-127.5 52.5t-127.5 -52.5t-52.5 -127.5t52.5 -127.5t127.5 -52.5zM480 440q-17 0 -28.5 11.5t-11.5 28.5t11.5 28.5t28.5 11.5t28.5 -11.5t11.5 -28.5t-11.5 -28.5t-28.5 -11.5zM480 80q-83 0 -156 31.5t-127 85.5 t-85.5 127t-31.5 156t31.5 156t85.5 127t127 85.5t156 31.5t156 -31.5t127 -85.5t85.5 -127t31.5 -156t-31.5 -156t-85.5 -127t-127 -85.5t-156 -31.5zM480 160q134 0 227 93t93 227t-93 227t-227 93t-227 -93t-93 -227t93 -227t227 -93zM480 480v0v0v0z" />
<glyph unicode="av_timer" d="M480 120q-74 0 -139.5 28.5t-114.5 77.5t-77.5 114.5t-28.5 139.5q0 44 10 85.5t29 78t45.5 68t59.5 56.5l272 -272l-56 -56l-216 216q-30 -36 -47 -80.5t-17 -95.5q0 -116 82 -198t198 -82t198 82t82 198q0 107 -68.5 184.5t-171.5 91.5v-76h-80v160h20h20 q74 0 139.5 -28.5t114.5 -77.5t77.5 -114.5t28.5 -139.5t-28.5 -139.5t-77.5 -114.5t-114.5 -77.5t-139.5 -28.5zM480 240q-17 0 -28.5 11.5t-11.5 28.5t11.5 28.5t28.5 11.5t28.5 -11.5t11.5 -28.5t-11.5 -28.5t-28.5 -11.5zM680 440q-17 0 -28.5 11.5t-11.5 28.5 t11.5 28.5t28.5 11.5t28.5 -11.5t11.5 -28.5t-11.5 -28.5t-28.5 -11.5zM280 440q-17 0 -28.5 11.5t-11.5 28.5t11.5 28.5t28.5 11.5t28.5 -11.5t11.5 -28.5t-11.5 -28.5t-28.5 -11.5z" />
<glyph unicode="equalizer" d="M160 160v320h160v-320h-160zM400 160v640h160v-640h-160zM640 160v440h160v-440h-160z" />
<glyph unicode="explicit" d="M360 280h240v80h-160v80h160v80h-160v80h160v80h-240v-400zM200 120q-33 0 -56.5 23.5t-23.5 56.5v560q0 33 23.5 56.5t56.5 23.5h560q33 0 56.5 -23.5t23.5 -56.5v-560q0 -33 -23.5 -56.5t-56.5 -23.5h-560zM200 200h560v0v560v0h-560v0v-560v0zM200 760v-560v0v0v560v0 z" />
<glyph unicode="fast_forward" d="M100 240v480l360 -240zM500 240v480l360 -240zM180 480zM580 480zM180 390l136 90l-136 90v-180zM580 390l136 90l-136 90v-180z" />
<glyph unicode="fast_rewind" d="M860 240l-360 240l360 240v-480zM460 240l-360 240l360 240v-480zM380 480zM780 480zM380 390v180l-136 -90zM780 390v180l-136 -90z" />
<glyph unicode="hearing" d="M680 80q-62 0 -101.5 31t-60.5 91q-17 50 -32.5 70t-71.5 64q-62 50 -98 113t-36 151q0 119 80.5 199.5t199.5 80.5t199.5 -80.5t80.5 -199.5h-80q0 85 -57.5 142.5t-142.5 57.5t-142.5 -57.5t-57.5 -142.5q0 -68 27 -116t77 -86q52 -38 81 -74t43 -78q14 -44 33.5 -65 t58.5 -21q33 0 56.5 23.5t23.5 56.5h80q0 -66 -47 -113t-113 -47zM248 290q-59 60 -93.5 139.5t-34.5 170.5q0 92 34.5 172t93.5 140l58 -56q-50 -50 -78 -115.5t-28 -140.5q0 -74 28 -139t78 -115zM560 500q-42 0 -71 29.5t-29 70.5q0 42 29 71t71 29t71 -29t29 -71 q0 -41 -29 -70.5t-71 -29.5z" />
<glyph unicode="high_quality" d="M590 300h60v60h30q17 0 28.5 11.5t11.5 28.5v160q0 17 -11.5 28.5t-28.5 11.5h-120q-17 0 -28.5 -11.5t-11.5 -28.5v-160q0 -17 11.5 -28.5t28.5 -11.5h30v-60zM240 360h60v80h80v-80h60v240h-60v-100h-80v100h-60v-240zM580 420v120v0h80v0v-120v0h-80zM160 160 q-33 0 -56.5 23.5t-23.5 56.5v480q0 33 23.5 56.5t56.5 23.5h640q33 0 56.5 -23.5t23.5 -56.5v-480q0 -33 -23.5 -56.5t-56.5 -23.5h-640zM160 240h640v0v480v0h-640v0v-480v0zM160 240v480v0v0v-480v0z" />
<glyph unicode="ifl" d="M640 260q25 0 42.5 17.5t17.5 42.5t-17.5 42.5t-42.5 17.5t-42.5 -17.5t-17.5 -42.5t17.5 -42.5t42.5 -17.5zM480 420q25 0 42.5 17.5t17.5 42.5t-17.5 42.5t-42.5 17.5t-42.5 -17.5t-17.5 -42.5t17.5 -42.5t42.5 -17.5zM320 580q25 0 42.5 17.5t17.5 42.5t-17.5 42.5 t-42.5 17.5t-42.5 -17.5t-17.5 -42.5t17.5 -42.5t42.5 -17.5zM200 120q-33 0 -56.5 23.5t-23.5 56.5v560q0 33 23.5 56.5t56.5 23.5h560q33 0 56.5 -23.5t23.5 -56.5v-560q0 -33 -23.5 -56.5t-56.5 -23.5h-560zM200 200h560v0v560v0h-560v0v-560v0zM200 760v-560v0v0v560v0z " />
<glyph unicode="instant_mix" d="M200 160v280h-80v80h240v-80h-80v-280h-80zM200 600v200h80v-200h-80zM360 600v80h80v120h80v-120h80v-80h-240zM440 160v360h80v-360h-80zM680 160v120h-80v80h240v-80h-80v-120h-80zM680 440v360h80v-360h-80z" />
<glyph unicode="keyboard_voice" d="M480 400q-50 0 -85 35t-35 85v240q0 50 35 85t85 35t85 -35t35 -85v-240q0 -50 -35 -85t-85 -35zM480 640v0v0v0v0zM440 120v123q-104 14 -172 93t-68 184h80q0 -83 58.5 -141.5t141.5 -58.5t141.5 58.5t58.5 141.5h80q0 -105 -68 -184t-172 -93v-123h-80zM480 480 q17 0 28.5 11.5t11.5 28.5v240q0 17 -11.5 28.5t-28.5 11.5t-28.5 -11.5t-11.5 -28.5v-240q0 -17 11.5 -28.5t28.5 -11.5z" />
<glyph unicode="mic_off" d="M710 362l-58 58q14 23 21 48t7 52h80q0 -44 -13 -83.5t-37 -74.5zM480 594v0v0zM592 482l-72 72v206q0 17 -11.5 28.5t-28.5 11.5t-28.5 -11.5t-11.5 -28.5v-126l-80 80v46q0 50 35 85t85 35t85 -35t35 -85v-240q0 -11 -2.5 -20t-5.5 -18zM440 120v123q-104 14 -172 93 t-68 184h80q0 -83 57.5 -141.5t142.5 -58.5q34 0 64.5 10.5t55.5 29.5l57 -57q-29 -23 -63.5 -39t-73.5 -21v-123h-80zM792 56l-736 736l56 56l736 -736z" />
<glyph unicode="movie_info" d="M160 120q-33 0 -56.5 23.5t-23.5 56.5v560q0 33 23.5 56.5t56.5 23.5h640q33 0 56.5 -23.5t23.5 -56.5v-560q0 -33 -23.5 -56.5t-56.5 -23.5h-640zM160 200h80v80h-80v-80v0zM720 200h80v0v80h-80v-80zM440 280h80v240h-80v-240zM160 360h80v80h-80v-80zM720 360h80v80 h-80v-80zM160 520h80v80h-80v-80zM720 520h80v80h-80v-80zM480 600q17 0 28.5 11.5t11.5 28.5t-11.5 28.5t-28.5 11.5t-28.5 -11.5t-11.5 -28.5t11.5 -28.5t28.5 -11.5zM160 680h80v80h-80v0v-80zM720 680h80v80v0h-80v-80zM320 200h320v560h-320v-560zM320 760h320h-320z " />
<glyph unicode="library_books" d="M400 400h160v80h-160v-80zM400 520h320v80h-320v-80zM400 640h320v80h-320v-80zM320 240q-33 0 -56.5 23.5t-23.5 56.5v480q0 33 23.5 56.5t56.5 23.5h480q33 0 56.5 -23.5t23.5 -56.5v-480q0 -33 -23.5 -56.5t-56.5 -23.5h-480zM320 320h480v0v480v0h-480v0v-480v0z M160 80q-33 0 -56.5 23.5t-23.5 56.5v560h80v-560v0h560v-80h-560zM320 800v-480v0v0v480v0z" />
<glyph unicode="library_music" d="M500 360q42 0 71 29t29 71v220h120v80h-160v-220q-13 10 -28 15t-32 5q-42 0 -71 -29t-29 -71t29 -71t71 -29zM320 240q-33 0 -56.5 23.5t-23.5 56.5v480q0 33 23.5 56.5t56.5 23.5h480q33 0 56.5 -23.5t23.5 -56.5v-480q0 -33 -23.5 -56.5t-56.5 -23.5h-480zM320 320 h480v0v480v0h-480v0v-480v0zM160 80q-33 0 -56.5 23.5t-23.5 56.5v560h80v-560v0h560v-80h-560zM320 800v-480v0v0v480v0z" />
<glyph unicode="news" d="M200 120q-33 0 -56.5 23.5t-23.5 56.5v560q0 33 23.5 56.5t56.5 23.5h440l200 -200v-440q0 -33 -23.5 -56.5t-56.5 -23.5h-560zM200 200h560v0v400h-160v160h-400v0v-560v0zM280 280h400v80h-400v-80zM280 600h200v80h-200v-80zM280 440h400v80h-400v-80zM200 760v-160 v160v-160v-400v0v0v560v0z" />
<glyph unicode="pause" d="M520 200v560h240v-560h-240zM200 200v560h240v-560h-240zM600 280h80v400h-80v-400zM280 280h80v400h-80v-400zM280 680v-400v400zM600 680v-400v400z" />
<glyph unicode="pause_circle_outline" d="M360 320h80v320h-80v-320zM520 320h80v320h-80v-320zM480 80q-83 0 -156 31.5t-127 85.5t-85.5 127t-31.5 156t31.5 156t85.5 127t127 85.5t156 31.5t156 -31.5t127 -85.5t85.5 -127t31.5 -156t-31.5 -156t-85.5 -127t-127 -85.5t-156 -31.5zM480 160q134 0 227 93 t93 227t-93 227t-227 93t-227 -93t-93 -227t93 -227t227 -93zM480 480v0v0v0z" />
<glyph unicode="play_arrow" d="M320 200v560l440 -280zM400 480zM400 346l210 134l-210 134v-268z" />
<glyph unicode="play_circle" d="M380 300l280 180l-280 180v-360zM480 80q-83 0 -156 31.5t-127 85.5t-85.5 127t-31.5 156t31.5 156t85.5 127t127 85.5t156 31.5t156 -31.5t127 -85.5t85.5 -127t31.5 -156t-31.5 -156t-85.5 -127t-127 -85.5t-156 -31.5zM480 160q134 0 227 93t93 227t-93 227t-227 93 t-227 -93t-93 -227t93 -227t227 -93zM480 480v0v0v0z" />
<glyph unicode="playlist_add" d="M120 320v80h280v-80h-280zM120 480v80h440v-80h-440zM120 640v80h440v-80h-440zM640 160v160h-160v80h160v160h80v-160h160v-80h-160v-160h-80z" />
<glyph unicode="library_add" d="M520 400h80v120h120v80h-120v120h-80v-120h-120v-80h120v-120zM320 240q-33 0 -56.5 23.5t-23.5 56.5v480q0 33 23.5 56.5t56.5 23.5h480q33 0 56.5 -23.5t23.5 -56.5v-480q0 -33 -23.5 -56.5t-56.5 -23.5h-480zM320 320h480v0v480v0h-480v0v-480v0zM160 80 q-33 0 -56.5 23.5t-23.5 56.5v560h80v-560v0h560v-80h-560zM320 800v-480v0v0v480v0z" />
<glyph unicode="queue_music" d="M640 160q-50 0 -85 35t-35 85t35 85t85 35q11 0 21 -1.5t19 -6.5v328h200v-80h-120v-360q0 -50 -35 -85t-85 -35zM120 320v80h320v-80h-320zM120 480v80h480v-80h-480zM120 640v80h480v-80h-480z" />
<glyph unicode="radio" d="M160 80q-33 0 -56.5 23.5t-23.5 56.5v480q0 25 13.5 45t36.5 29l506 206l26 -66l-330 -134h468q33 0 56.5 -23.5t23.5 -56.5v-480q0 -33 -23.5 -56.5t-56.5 -23.5h-640zM160 160h640v0v280h-640v-280v0zM320 200q42 0 71 29t29 71t-29 71t-71 29t-71 -29t-29 -71t29 -71 t71 -29zM160 520h480v80h80v-80h80v120v0h-640v0v-120zM160 160v280v-280v0z" />
<glyph unicode="recent_actors" d="M120 200q-33 0 -56.5 23.5t-23.5 56.5v400q0 33 23.5 56.5t56.5 23.5h400q33 0 56.5 -23.5t23.5 -56.5v-400q0 -33 -23.5 -56.5t-56.5 -23.5h-400zM120 346q44 26 94 40t106 14t106 -14t94 -40v334v0h-400v0v-334zM320 320q-41 0 -80 -10t-74 -30v0h308v0q-35 20 -74 30 t-80 10zM320 430q-45 0 -77.5 32.5t-32.5 77.5t32.5 77.5t77.5 32.5t77.5 -32.5t32.5 -77.5t-32.5 -77.5t-77.5 -32.5zM320 504q15 0 25.5 10.5t10.5 25.5t-10.5 25.5t-25.5 10.5t-25.5 -10.5t-10.5 -25.5t10.5 -25.5t25.5 -10.5zM680 200v560h80v-560h-80zM840 200v560h80 v-560h-80zM320 540v0v0v0zM320 280v0v0v0z" />
<glyph unicode="repeat" d="M280 80l-160 160l160 160l56 -58l-62 -62h406v160h80v-240h-486l62 -62zM200 520v240h486l-62 62l56 58l160 -160l-160 -160l-56 58l62 62h-406v-160h-80z" />
<glyph unicode="repeat_one" d="M280 80l-160 160l160 160l56 -58l-62 -62h406v160h80v-240h-486l62 -62zM460 360v180h-60v60h120v-240h-60zM200 520v240h486l-62 62l56 58l160 -160l-160 -160l-56 58l62 62h-406v-160h-80z" />
<glyph unicode="replay" d="M480 80q-75 0 -140.5 28.5t-114 77t-77 114t-28.5 140.5h80q0 -117 81.5 -198.5t198.5 -81.5t198.5 81.5t81.5 198.5t-81.5 198.5t-198.5 81.5h-6l62 -62l-56 -58l-160 160l160 160l56 -58l-62 -62h6q75 0 140.5 -28.5t114 -77t77 -114t28.5 -140.5t-28.5 -140.5 t-77 -114t-114 -77t-140.5 -28.5z" />
<glyph unicode="shuffle" d="M560 160v80h104l-127 127l57 57l126 -126v102h80v-240h-240zM216 160l-56 56l504 504h-104v80h240v-240h-80v104zM367 537l-207 207l56 56l207 -207z" />
<glyph unicode="skip_next" d="M660 240v480h80v-480h-80zM220 240v480l360 -240zM300 480zM300 390l136 90l-136 90v-180z" />
<glyph unicode="skip_previous" d="M220 240v480h80v-480h-80zM740 240l-360 240l360 240v-480zM660 480zM660 390v180l-136 -90z" />
<glyph unicode="snooze" d="M380 334h200v60h-112l112 126v54h-200v-60h114l-114 -128v-52zM480 80q-75 0 -140.5 28.5t-114 77t-77 114t-28.5 140.5t28.5 140.5t77 114t114 77t140.5 28.5t140.5 -28.5t114 -77t77 -114t28.5 -140.5t-28.5 -140.5t-77 -114t-114 -77t-140.5 -28.5zM480 440v0v0v0z M224 866l56 -56l-170 -170l-56 56zM736 866l170 -170l-56 -56l-170 170zM480 160q117 0 198.5 81.5t81.5 198.5t-81.5 198.5t-198.5 81.5t-198.5 -81.5t-81.5 -198.5t81.5 -198.5t198.5 -81.5z" />
<glyph unicode="stop" d="M320 640v-320v320zM240 240v480h480v-480h-480zM320 320h320v320h-320v-320z" />
<glyph unicode="subtitles" d="M240 320h320v80h-320v-80zM640 320h80v80h-80v-80zM240 480h80v80h-80v-80zM400 480h320v80h-320v-80zM160 160q-33 0 -56.5 23.5t-23.5 56.5v480q0 33 23.5 56.5t56.5 23.5h640q33 0 56.5 -23.5t23.5 -56.5v-480q0 -33 -23.5 -56.5t-56.5 -23.5h-640zM160 240h640v0v480 v0h-640v0v-480v0zM160 240v480v0v0v-480v0z" />
<glyph unicode="surround_sound" d="M480 360q50 0 85 35t35 85t-35 85t-85 35t-85 -35t-35 -85t35 -85t85 -35zM678 282q40 40 61 91t21 107t-21 107t-61 91l-56 -56q29 -29 43.5 -65.5t14.5 -76.5t-14.5 -76.5t-43.5 -65.5zM282 282l56 56q-29 29 -43.5 65.5t-14.5 76.5t14.5 76.5t43.5 65.5l-56 56 q-40 -40 -61 -91t-21 -107t21 -107t61 -91zM160 160q-33 0 -56.5 23.5t-23.5 56.5v480q0 33 23.5 56.5t56.5 23.5h640q33 0 56.5 -23.5t23.5 -56.5v-480q0 -33 -23.5 -56.5t-56.5 -23.5h-640zM160 240h640v0v480v0h-640v0v-480v0zM160 240v480v0v0v-480v0z" />
<glyph unicode="video_library" d="M460 380l280 180l-280 180v-360zM320 240q-33 0 -56.5 23.5t-23.5 56.5v480q0 33 23.5 56.5t56.5 23.5h480q33 0 56.5 -23.5t23.5 -56.5v-480q0 -33 -23.5 -56.5t-56.5 -23.5h-480zM320 320h480v0v480v0h-480v0v-480v0zM160 80q-33 0 -56.5 23.5t-23.5 56.5v560h80v-560 v0h560v-80h-560zM320 800v-480v0v0v480v0z" />
<glyph unicode="videocam" d="M160 160q-33 0 -56.5 23.5t-23.5 56.5v480q0 33 23.5 56.5t56.5 23.5h480q33 0 56.5 -23.5t23.5 -56.5v-180l160 160v-440l-160 160v-180q0 -33 -23.5 -56.5t-56.5 -23.5h-480zM160 240h480v0v480v0h-480v0v-480v0zM160 240v480v0v0v-480v0z" />
<glyph unicode="videocam_off" d="M880 260l-160 160v-67l-80 80v287v0h-287l-80 80h367q33 0 56.5 -23.5t23.5 -56.5v-180l160 160v-440zM822 26l-796 796l56 56l796 -796zM498 575zM382 464v0v0v0zM160 800l80 -80h-80v0v-480v0h480v0v80l80 -80q0 -33 -23.5 -56.5t-56.5 -23.5h-480q-33 0 -56.5 23.5 t-23.5 56.5v480q0 33 23.5 56.5t56.5 23.5z" />
<glyph unicode="volume_down" d="M200 360v240h160l200 200v-640l-200 200h-160zM640 320v322q45 -21 72.5 -65t27.5 -97t-27.5 -96t-72.5 -64zM480 606l-86 -86h-114v-80h114l86 -86v252zM380 480v0v0z" />
<glyph unicode="volume_mute" d="M280 360v240h160l200 200v-640l-200 200h-160zM360 440h114l86 -86v252l-86 -86h-114v-80zM460 480v0v0z" />
<glyph unicode="volume_off" d="M792 56l-121 121q-25 -16 -53 -27.5t-58 -18.5v82q14 5 27.5 10t25.5 12l-133 133v-208l-200 200h-160v240h128l-192 192l56 56l736 -736zM784 288l-58 58q17 31 25.5 65t8.5 70q0 94 -55 168t-145 100v82q124 -28 202 -125.5t78 -224.5q0 -53 -14.5 -102t-41.5 -91z M650 422l-90 90v130q47 -22 73.5 -66t26.5 -96q0 -15 -2.5 -29.5t-7.5 -28.5zM480 592l-104 104l104 104v-208zM400 354v94l-72 72h-128v-80h114zM364 484v0v0z" />
<glyph unicode="volume_up" d="M560 131v82q90 26 145 100t55 168t-55 168t-145 100v82q124 -28 202 -125.5t78 -224.5t-78 -224.5t-202 -125.5zM120 360v240h160l200 200v-640l-200 200h-160zM560 320v322q47 -22 73.5 -66t26.5 -96q0 -51 -26.5 -94.5t-73.5 -65.5zM400 606l-86 -86h-114v-80h114 l86 -86v252zM300 480v0v0z" />
<glyph unicode="web" d="M160 160q-33 0 -56.5 23.5t-23.5 56.5v480q0 33 23.5 56.5t56.5 23.5h640q33 0 56.5 -23.5t23.5 -56.5v-480q0 -33 -23.5 -56.5t-56.5 -23.5h-640zM160 240h420v140h-420v-140v0zM660 240h140v0v360h-140v-360zM160 460h420v140h-420v-140z" />
<glyph unicode="hd" d="M240 360h60v80h80v-80h60v240h-60v-100h-80v100h-60v-240zM520 360h160q17 0 28.5 11.5t11.5 28.5v160q0 17 -11.5 28.5t-28.5 11.5h-160v-240zM580 420v120h80v0v-120v0h-80zM160 160q-33 0 -56.5 23.5t-23.5 56.5v480q0 33 23.5 56.5t56.5 23.5h640q33 0 56.5 -23.5 t23.5 -56.5v-480q0 -33 -23.5 -56.5t-56.5 -23.5h-640zM160 240h640v0v480v0h-640v0v-480v0zM160 240v480v0v0v-480v0z" />
<glyph unicode="sort_by_alpha" d="M80 280l150 400h86l150 -400h-82l-34 96h-154l-32 -96h-84zM220 444h104l-48 150h-6zM548 280v76l202 252h-194v72h282v-76l-200 -252h202v-72h-292zM360 760l120 120l120 -120h-240zM480 80l-120 120h240z" />
<glyph unicode="airplay" d="M240 120l240 240l240 -240h-480zM80 280v480q0 33 23.5 56.5t56.5 23.5h640q33 0 56.5 -23.5t23.5 -56.5v-480q0 -33 -23.5 -56.5t-56.5 -23.5h-120v80h120v0v480v0h-640v0v-480v0h120v-80h-120q-33 0 -56.5 23.5t-23.5 56.5zM480 480v0v0v0v0v0v0v0z" />
<glyph unicode="forward_&#x31;&#x30;" d="M360 320v180h-60v60h120v-240h-60zM500 320q-17 0 -28.5 11.5t-11.5 28.5v160q0 17 11.5 28.5t28.5 11.5h80q17 0 28.5 -11.5t11.5 -28.5v-160q0 -17 -11.5 -28.5t-28.5 -11.5h-80zM520 380h40v0v120v0h-40v0v-120v0zM480 80q-75 0 -140.5 28.5t-114 77t-77 114 t-28.5 140.5t28.5 140.5t77 114t114 77t140.5 28.5h6l-62 62l56 58l160 -160l-160 -160l-56 58l62 62h-6q-117 0 -198.5 -81.5t-81.5 -198.5t81.5 -198.5t198.5 -81.5t198.5 81.5t81.5 198.5h80q0 -75 -28.5 -140.5t-77 -114t-114 -77t-140.5 -28.5z" />
<glyph unicode="forward_&#x33;&#x30;" d="M300 320v60h100v40h-60v40h60v40h-100v60h120q17 0 28.5 -11.5t11.5 -28.5v-160q0 -17 -11.5 -28.5t-28.5 -11.5h-120zM540 320q-17 0 -28.5 11.5t-11.5 28.5v160q0 17 11.5 28.5t28.5 11.5h80q17 0 28.5 -11.5t11.5 -28.5v-160q0 -17 -11.5 -28.5t-28.5 -11.5h-80z M560 380h40v0v120v0h-40v0v-120v0zM480 80q-75 0 -140.5 28.5t-114 77t-77 114t-28.5 140.5t28.5 140.5t77 114t114 77t140.5 28.5h6l-62 62l56 58l160 -160l-160 -160l-56 58l62 62h-6q-117 0 -198.5 -81.5t-81.5 -198.5t81.5 -198.5t198.5 -81.5t198.5 81.5t81.5 198.5h80 q0 -75 -28.5 -140.5t-77 -114t-114 -77t-140.5 -28.5z" />
<glyph unicode="forward_&#x35;" d="M480 80q-75 0 -140.5 28.5t-114 77t-77 114t-28.5 140.5t28.5 140.5t77 114t114 77t140.5 28.5h6l-62 62l56 58l160 -160l-160 -160l-56 58l62 62h-6q-117 0 -198.5 -81.5t-81.5 -198.5t81.5 -198.5t198.5 -81.5t198.5 81.5t81.5 198.5h80q0 -75 -28.5 -140.5t-77 -114 t-114 -77t-140.5 -28.5zM380 320v60h120v40h-120v140h180v-60h-120v-40h80q17 0 28.5 -11.5t11.5 -28.5v-60q0 -17 -11.5 -28.5t-28.5 -11.5h-140z" />
<glyph unicode="replay_&#x31;&#x30;" d="M480 80q-75 0 -140.5 28.5t-114 77t-77 114t-28.5 140.5h80q0 -117 81.5 -198.5t198.5 -81.5t198.5 81.5t81.5 198.5t-81.5 198.5t-198.5 81.5h-6l62 -62l-56 -58l-160 160l160 160l56 -58l-62 -62h6q75 0 140.5 -28.5t114 -77t77 -114t28.5 -140.5t-28.5 -140.5 t-77 -114t-114 -77t-140.5 -28.5zM360 320v180h-60v60h120v-240h-60zM500 320q-17 0 -28.5 11.5t-11.5 28.5v160q0 17 11.5 28.5t28.5 11.5h80q17 0 28.5 -11.5t11.5 -28.5v-160q0 -17 -11.5 -28.5t-28.5 -11.5h-80zM520 380h40v0v120v0h-40v0v-120v0z" />
<glyph unicode="replay_&#x33;&#x30;" d="M480 80q-75 0 -140.5 28.5t-114 77t-77 114t-28.5 140.5h80q0 -117 81.5 -198.5t198.5 -81.5t198.5 81.5t81.5 198.5t-81.5 198.5t-198.5 81.5h-6l62 -62l-56 -58l-160 160l160 160l56 -58l-62 -62h6q75 0 140.5 -28.5t114 -77t77 -114t28.5 -140.5t-28.5 -140.5 t-77 -114t-114 -77t-140.5 -28.5zM300 320v60h100v40h-60v40h60v40h-100v60h120q17 0 28.5 -11.5t11.5 -28.5v-160q0 -17 -11.5 -28.5t-28.5 -11.5h-120zM540 320q-17 0 -28.5 11.5t-11.5 28.5v160q0 17 11.5 28.5t28.5 11.5h80q17 0 28.5 -11.5t11.5 -28.5v-160 q0 -17 -11.5 -28.5t-28.5 -11.5h-80zM560 380h40v0v120v0h-40v0v-120v0z" />
<glyph unicode="replay_&#x35;" d="M480 80q-75 0 -140.5 28.5t-114 77t-77 114t-28.5 140.5h80q0 -117 81.5 -198.5t198.5 -81.5t198.5 81.5t81.5 198.5t-81.5 198.5t-198.5 81.5h-6l62 -62l-56 -58l-160 160l160 160l56 -58l-62 -62h6q75 0 140.5 -28.5t114 -77t77 -114t28.5 -140.5t-28.5 -140.5 t-77 -114t-114 -77t-140.5 -28.5zM380 320v60h120v40h-120v140h180v-60h-120v-40h80q17 0 28.5 -11.5t11.5 -28.5v-60q0 -17 -11.5 -28.5t-28.5 -11.5h-140z" />
<glyph unicode="add_to_queue" d="M440 360h80v120h120v80h-120v120h-80v-120h-120v-80h120v-120zM320 120v80h-160q-33 0 -56.5 23.5t-23.5 56.5v480q0 33 23.5 56.5t56.5 23.5h640q33 0 56.5 -23.5t23.5 -56.5v-480q0 -33 -23.5 -56.5t-56.5 -23.5h-160v-80h-320zM160 280h640v0v480v0h-640v0v-480v0z M160 280v480v0v0v-480v0z" />
<glyph unicode="fiber_dvr" d="M160 360h140q26 0 43 17t17 43v120q0 26 -17 43t-43 17h-140v-240zM220 420v120h80v0v-120v0h-80zM444 360h60l70 240h-60l-40 -138l-40 138h-60zM600 360h60v80h46l34 -80h60l-36 84q15 8 25.5 23t10.5 33v40q0 26 -17 43t-43 17h-140v-240zM660 500v40h80v0v-40v0h-80z M120 160q-33 0 -56.5 23.5t-23.5 56.5v480q0 33 23.5 56.5t56.5 23.5h720q33 0 56.5 -23.5t23.5 -56.5v-480q0 -33 -23.5 -56.5t-56.5 -23.5h-720zM120 240h720v0v480v0h-720v0v-480v0zM120 240v480v0v0v-480v0z" />
<glyph unicode="fiber_new" d="M120 160q-33 0 -56.5 23.5t-23.5 56.5v480q0 33 23.5 56.5t56.5 23.5h720q33 0 56.5 -23.5t23.5 -56.5v-480q0 -33 -23.5 -56.5t-56.5 -23.5h-720zM120 240h720v0v480v0h-720v0v-480v0zM140 360h50v140l102 -140h48v240h-50v-140l-100 140h-50v-240zM380 360h160v50h-100 v44h100v50h-100v46h100v50h-160v-240zM620 360h160q17 0 28.5 11.5t11.5 28.5v200h-50v-180h-44v140h-50v-140h-46v180h-50v-200q0 -17 11.5 -28.5t28.5 -11.5zM120 240v480v0v0v-480v0z" />
<glyph unicode="playlist_play" d="M120 320v80h320v-80h-320zM120 480v80h480v-80h-480zM120 640v80h480v-80h-480zM640 120v320l240 -160z" />
<glyph unicode="art_track" d="M120 200q-33 0 -56.5 23.5t-23.5 56.5v400q0 33 23.5 56.5t56.5 23.5h400q33 0 56.5 -23.5t23.5 -56.5v-400q0 -33 -23.5 -56.5t-56.5 -23.5h-400zM120 280h400v0v400v0h-400v0v-400v0zM160 360h320l-104 140l-76 -100l-56 74zM680 200v560h80v-560h-80zM840 200v560h80 v-560h-80zM120 280v400v0v0v-400v0z" />
<glyph unicode="fiber_manual_record" d="M480 480v0v0v0zM480 200q-116 0 -198 82t-82 198t82 198t198 82t198 -82t82 -198t-82 -198t-198 -82zM480 280q83 0 141.5 58.5t58.5 141.5t-58.5 141.5t-141.5 58.5t-141.5 -58.5t-58.5 -141.5t58.5 -141.5t141.5 -58.5z" />
<glyph unicode="fiber_smart_record" d="M360 200q-117 0 -198.5 81.5t-81.5 198.5t81.5 198.5t198.5 81.5t198.5 -81.5t81.5 -198.5t-81.5 -198.5t-198.5 -81.5zM360 480v0v0v0zM640 204v80q70 14 115 69t45 127t-45 127t-115 69v80q104 -14 172 -92.5t68 -183.5t-68 -183.5t-172 -92.5zM360 280 q83 0 141.5 58.5t58.5 141.5t-58.5 141.5t-141.5 58.5t-141.5 -58.5t-58.5 -141.5t58.5 -141.5t141.5 -58.5z" />
<glyph unicode="music_video" d="M420 280q42 0 71 29t29 71v220h120v80h-160v-220q-13 9 -28 14.5t-32 5.5q-42 0 -71 -29t-29 -71t29 -71t71 -29zM160 160q-33 0 -56.5 23.5t-23.5 56.5v480q0 33 23.5 56.5t56.5 23.5h640q33 0 56.5 -23.5t23.5 -56.5v-480q0 -33 -23.5 -56.5t-56.5 -23.5h-640zM160 240 h640v0v480v0h-640v0v-480v0zM160 240v480v0v0v-480v0z" />
<glyph unicode="subscriptions" d="M160 80q-33 0 -56.5 23.5t-23.5 56.5v400q0 33 23.5 56.5t56.5 23.5h640q33 0 56.5 -23.5t23.5 -56.5v-400q0 -33 -23.5 -56.5t-56.5 -23.5h-640zM160 160h640v0v400v0h-640v0v-400v0zM400 200l240 160l-240 160v-320zM160 680v80h640v-80h-640zM280 800v80h400v-80h-400 zM160 160v400v0v0v-400v0z" />
<glyph unicode="playlist_add_check" d="M120 320v80h320v-80h-320zM120 480v80h480v-80h-480zM120 640v80h480v-80h-480zM654 200l-142 142l56 56l86 -84l170 170l56 -58z" />
<glyph unicode="queue_play_next" d="M780 60l-60 60l120 120l-120 120l60 60l180 -180zM320 120v80h-160q-33 0 -56.5 23.5t-23.5 56.5v480q0 33 23.5 56.5t56.5 23.5h640q33 0 56.5 -23.5t23.5 -56.5v-280h-80v280v0h-640v0v-480v0h520v-80h-80v-80h-280zM440 360h80v120h120v80h-120v120h-80v-120h-120v-80 h120v-120zM160 280v480v0v0v-480v0z" />
<glyph unicode="remove_from_queue" d="M320 480h320v80h-320v-80zM320 120v80h-160q-33 0 -56.5 23.5t-23.5 56.5v480q0 33 23.5 56.5t56.5 23.5h640q33 0 56.5 -23.5t23.5 -56.5v-480q0 -33 -23.5 -56.5t-56.5 -23.5h-160v-80h-320zM160 280h640v0v480v0h-640v0v-480v0zM160 280v480v0v0v-480v0z" />
<glyph unicode="slow_motion_video" d="M170 228q-38 44 -61 98t-29 114h82q6 -44 22 -83.5t42 -72.5zM80 520q8 60 30 114t60 98l56 -56q-26 -33 -42 -72.5t-22 -83.5h-82zM438 82q-60 6 -113.5 29t-98.5 59l56 58q35 -26 73.5 -43t82.5 -23v-80zM284 732l-58 58q45 36 98.5 59t115.5 29v-80q-45 -6 -84 -23 t-72 -43zM380 300v360l280 -180zM520 82v80q121 17 200.5 107t79.5 211t-79.5 211t-200.5 107v80q154 -17 257 -130t103 -268t-103 -268t-257 -130z" />
<glyph unicode="web_asset" d="M160 160q-33 0 -56.5 23.5t-23.5 56.5v480q0 33 23.5 56.5t56.5 23.5h640q33 0 56.5 -23.5t23.5 -56.5v-480q0 -33 -23.5 -56.5t-56.5 -23.5h-640zM160 240h640v0v400h-640v-400v0z" />
<glyph unicode="fiber_pin" d="M200 360h60v80h100q17 0 28.5 11.5t11.5 28.5v80q0 17 -11.5 28.5t-28.5 11.5h-160v-240zM450 360h60v240h-60v-240zM560 360h50v140l102 -140h48v240h-50v-140l-100 140h-50v-240zM260 500v40h80v0v-40v0h-80zM160 160q-33 0 -56.5 23.5t-23.5 56.5v480q0 33 23.5 56.5 t56.5 23.5h640q33 0 56.5 -23.5t23.5 -56.5v-480q0 -33 -23.5 -56.5t-56.5 -23.5h-640zM160 240h640v0v480v0h-640v0v-480v0zM160 240v480v0v0v-480v0z" />
<glyph unicode="branding_watermark" d="M400 280h360v240h-360v-240zM160 160q-33 0 -56.5 23.5t-23.5 56.5v480q0 33 23.5 56.5t56.5 23.5h640q33 0 56.5 -23.5t23.5 -56.5v-480q0 -33 -23.5 -56.5t-56.5 -23.5h-640zM160 240h640v0v480v0h-640v0v-480v0zM160 240v480v0v0v-480v0z" />
<glyph unicode="call_to_action" d="M240 280h480v120h-480v-120zM160 160q-33 0 -56.5 23.5t-23.5 56.5v480q0 33 23.5 56.5t56.5 23.5h640q33 0 56.5 -23.5t23.5 -56.5v-480q0 -33 -23.5 -56.5t-56.5 -23.5h-640zM160 240h640v0v480v0h-640v0v-480v0zM160 240v480v0v0v-480v0z" />
<glyph unicode="featured_play_list" d="M240 440h360v80h-360v-80zM240 560h360v80h-360v-80zM160 160q-33 0 -56.5 23.5t-23.5 56.5v480q0 33 23.5 56.5t56.5 23.5h640q33 0 56.5 -23.5t23.5 -56.5v-480q0 -33 -23.5 -56.5t-56.5 -23.5h-640zM160 240h640v0v480v0h-640v0v-480v0zM160 240v480v0v0v-480v0z" />
<glyph unicode="featured_video" d="M200 400h360v280h-360v-280zM160 160q-33 0 -56.5 23.5t-23.5 56.5v480q0 33 23.5 56.5t56.5 23.5h640q33 0 56.5 -23.5t23.5 -56.5v-480q0 -33 -23.5 -56.5t-56.5 -23.5h-640zM160 240h640v0v480v0h-640v0v-480v0zM160 240v480v0v0v-480v0z" />
<glyph unicode="video_call" d="M360 320h80v120h120v80h-120v120h-80v-120h-120v-80h120v-120zM160 160q-33 0 -56.5 23.5t-23.5 56.5v480q0 33 23.5 56.5t56.5 23.5h480q33 0 56.5 -23.5t23.5 -56.5v-180l160 160v-440l-160 160v-180q0 -33 -23.5 -56.5t-56.5 -23.5h-480zM160 240h480v0v480v0h-480v0 v-480v0zM160 240v480v0v0v-480v0z" />
<glyph unicode="video_label" d="M160 160q-33 0 -56.5 23.5t-23.5 56.5v480q0 33 23.5 56.5t56.5 23.5h640q33 0 56.5 -23.5t23.5 -56.5v-480q0 -33 -23.5 -56.5t-56.5 -23.5h-640zM160 360h640v360v0h-640v0v-360z" />
<glyph unicode="&#x34;k" d="M520 360h60v90l70 -90h73l-93 120l93 120h-73l-70 -90v90h-60v-240zM380 360h60v60h40v60h-40v120h-60v-120h-60v120h-60v-180h120v-60zM200 120q-33 0 -56.5 23.5t-23.5 56.5v560q0 33 23.5 56.5t56.5 23.5h560q33 0 56.5 -23.5t23.5 -56.5v-560q0 -33 -23.5 -56.5 t-56.5 -23.5h-560zM200 200h560v0v560v0h-560v0v-560v0zM200 760v-560v0v0v560v0z" />
<glyph unicode="control_camera" d="M480 360q-50 0 -85 35t-35 85t35 85t85 35t85 -35t35 -85t-35 -85t-85 -35zM480 80l-170 170l56 56l114 -112l114 112l56 -56zM250 310l-170 170l170 170l56 -56l-112 -114l112 -114zM366 654l-56 56l170 170l170 -170l-56 -56l-114 112zM710 310l-56 56l112 114 l-112 114l56 56l170 -170z" />
<glyph unicode="update_disabled" d="M791 55l-120 120q-42 -26 -90 -40.5t-101 -14.5q-75 0 -140.5 28.5t-114 77t-77 114t-28.5 140.5q0 53 14.5 101t40.5 90l-120 120l57 57l736 -736zM480 200q36 0 69.5 8.5t63.5 24.5l-380 380q-16 -30 -24.5 -63.5t-8.5 -69.5q0 -117 81.5 -198.5t198.5 -81.5zM600 560 v80h110q-41 56 -101 88t-129 32q-36 0 -69.5 -8.5t-63.5 -24.5l-58 58q42 26 90 40.5t101 14.5q82 0 155.5 -35t124.5 -99v94h80v-240h-240zM520 554l-80 80v46h80v-126zM785 289l-58 58q11 22 18.5 45t10.5 48h82q-5 -42 -18.5 -80t-34.5 -71z" />
<glyph unicode="vertical_distribute" d="M80 80v80h800v-80h-800zM280 420v120h400v-120h-400zM80 800v80h800v-80h-800z" />
<glyph unicode="start" d="M80 240v480h80v-480h-80zM640 240l-57 56l144 144h-487v80h487l-143 144l56 56l240 -240z" />
<glyph unicode="call_log" d="M480 800v80h400v-80h-400zM480 640v80h400v-80h-400zM480 480v80h400v-80h-400zM758 80q-125 0 -247 54.5t-222 154.5t-154.5 222t-54.5 247q0 18 12 30t30 12h162q14 0 25 -9.5t13 -22.5l26 -140q2 -16 -1 -27t-11 -19l-97 -98q20 -37 47.5 -71.5t60.5 -66.5 q31 -31 65 -57.5t72 -48.5l94 94q9 9 23.5 13.5t28.5 2.5l138 -28q14 -4 23 -14.5t9 -23.5v-162q0 -18 -12 -30t-30 -12zM201 560l66 66v0l-17 94v0h-89v0q5 -41 14 -81t26 -79zM559 202q39 -17 79.5 -27t81.5 -13v0v88v0l-94 19v0zM201 560v0v0v0v0zM559 202v0v0v0v0z" />
<glyph unicode="add_notes" d="M200 120q-33 0 -56.5 23.5t-23.5 56.5v560q0 33 23.5 56.5t56.5 23.5h560q33 0 56.5 -23.5t23.5 -56.5v-268q-19 9 -39 15.5t-41 9.5v243v0h-560v0v-560v0h242q3 -22 9.5 -42t15.5 -38h-267zM200 240v-20v-20v0v560v0v0v-243v3v-82v-198zM280 280h163q3 21 9.5 41 t14.5 39h-187v-80zM280 440h244q32 30 71.5 50t84.5 27v3h-400v-80zM280 600h400v80h-400v-80zM720 40q-83 0 -141.5 58.5t-58.5 141.5t58.5 141.5t141.5 58.5t141.5 -58.5t58.5 -141.5t-58.5 -141.5t-141.5 -58.5zM700 120h40v100h100v40h-100v100h-40v-100h-100v-40h100 v-100z" />
<glyph unicode="all_match" d="M266 280l130 200l-130 200v0l130 -200v0l-20 -31q-21 -31 -45 -68.5t-45 -68.5zM120 200l180 280l-180 280h480q20 0 37.5 -9t28.5 -25l161 -227q-27 11 -55.5 16.5t-57.5 4.5l-114 160v0h-334l130 -200l-130 -200h177q-3 -20 -3 -40t3 -40h-323zM691 150l139 138l-42 42 l-97 -95l-39 39l-42 -43zM720 40q-83 0 -141.5 58.5t-58.5 141.5t58.5 141.5t141.5 58.5t141.5 -58.5t58.5 -141.5t-58.5 -141.5t-141.5 -58.5z" />
<glyph unicode="allergies" d="M380 240h80v290l-84 168l-72 -36l76 -152v-270zM500 240h80v270l76 152l-72 36l-84 -168v-290zM676 422l80 160l-72 36l-80 -160zM284 422l72 36l-80 160l-72 -36zM480 80q-83 0 -156 31.5t-127 85.5t-85.5 127t-31.5 156t31.5 156t85.5 127t127 85.5t156 31.5t156 -31.5 t127 -85.5t85.5 -127t31.5 -156t-31.5 -156t-85.5 -127t-127 -85.5t-156 -31.5zM480 160q134 0 227 93t93 227t-93 227t-227 93t-227 -93t-93 -227t93 -227t227 -93zM480 480v0v0v0z" />
<glyph unicode="blood_pressure" d="M80 600v120q0 33 23.5 56.5t56.5 23.5h640q33 0 56.5 -23.5t23.5 -56.5v-220h-80v220v0h-640v0v-120h-80zM280 280q-11 0 -21 5.5t-15 16.5l-69 138h-95v80h120q11 0 21 -5.5t15 -16.5l44 -88l124 248q5 10 15 15t21 5t21 -5t15 -15l67 -134q-18 -11 -34.5 -23t-30.5 -27 l-38 76l-124 -248q-5 -11 -15 -16.5t-21 -5.5zM427 160h-267q-33 0 -56.5 23.5t-23.5 56.5v120h80v-120v0h243q3 -21 9 -41t15 -39zM480 480v0v0v0v0v0v0v0zM680 80q-83 0 -141.5 58.5t-58.5 141.5t58.5 141.5t141.5 58.5t141.5 -58.5t58.5 -141.5t-58.5 -141.5 t-141.5 -58.5zM688 260l91 91l-28 28l-91 -91z" />
<glyph unicode="body_fat" d="M840 320h-40v-119q0 -23 -10.5 -40t-27.5 -28t-37.5 -12t-40.5 9l-560 278q-23 11 -33.5 30.5t-10.5 40.5t10.5 41t33.5 31l560 280q20 10 40.5 8.5t37.5 -12.5t27.5 -28t10.5 -40v-119h40v-80h-160v80h40v117v0l-176 -87q27 -43 41.5 -91t14.5 -99t-14.5 -100t-42.5 -92 l176 -87v0v119h-39v80h160v-80zM470 325q24 34 37 73.5t13 81.5t-13 80.5t-36 73.5l-311 -154v0z" />
<glyph unicode="body_system" d="M316 240l76 364l-72 -28v-96h-80v148l202 85q14 6 29.5 7.5t29.5 -3.5t26.5 -14t20.5 -23l40 -64q28 -45 73.5 -70.5t98.5 -25.5v-80q-70 0 -125.5 28t-94.5 72l-24 -60l84 -80v-160h-80v122l-78 72l-42 -194h-84zM540 740q-33 0 -56.5 23.5t-23.5 56.5t23.5 56.5 t56.5 23.5t56.5 -23.5t23.5 -56.5t-23.5 -56.5t-56.5 -23.5zM480 80q-83 0 -156 31.5t-127 85.5t-85.5 127t-31.5 156q0 119 61.5 214t160.5 144l36 -71q-79 -39 -128.5 -115.5t-49.5 -171.5q0 -134 93 -227t227 -93t227 93t93 227h80q0 -83 -31.5 -156t-85.5 -127 t-127 -85.5t-156 -31.5z" />
<glyph unicode="cardiology" d="M300 840q52 0 99 -22t81 -62q34 40 81 62t99 22q94 0 157 -63t63 -157q0 -5 -0.5 -10t-0.5 -10h-80q1 5 1 10v10q0 60 -40 100t-100 40q-47 0 -87 -26.5t-55 -67.5h-76q-15 41 -55 67.5t-87 26.5q-60 0 -100 -40t-40 -100v-10q0 -5 1 -10h-80q0 5 -0.5 10t-0.5 10 q0 94 63 157t157 63zM212 360h112q32 -31 70 -67t86 -79q48 43 86 79t70 67h113q-38 -42 -90 -91t-121 -111l-58 -52l-58 52q-69 62 -120.5 111t-89.5 91zM442 320q13 0 22.5 7.5t13.5 19.5l54 163l35 -52q5 -8 14 -13t19 -5h320v80h-297l-69 102q-6 9 -15.5 13.5t-20.5 4.5 q-13 0 -22.5 -7.5t-13.5 -19.5l-54 -162l-34 51q-5 8 -14 13t-19 5h-321v-80h297l69 -102q6 -9 15.5 -13.5t20.5 -4.5zM480 487v0v0v0v0v0v0v0v0z" />
<glyph unicode="clinical_notes" d="M680 320q-50 0 -85 35t-35 85t35 85t85 35t85 -35t35 -85t-35 -85t-85 -35zM680 400q17 0 28.5 11.5t11.5 28.5t-11.5 28.5t-28.5 11.5t-28.5 -11.5t-11.5 -28.5t11.5 -28.5t28.5 -11.5zM440 40v116q0 21 10 39.5t28 29.5q32 19 67.5 31.5t72.5 18.5l62 -75l62 75 q37 -6 72 -18.5t67 -31.5q18 -11 28.5 -29.5t10.5 -39.5v-116h-480zM519 120h123l-54 66q-18 -5 -35 -13t-34 -17v-36zM718 120h122v36q-16 10 -33 17.5t-35 12.5zM642 120zM718 120zM200 120q-33 0 -56.5 23.5t-23.5 56.5v560q0 33 23.5 56.5t56.5 23.5h560 q33 0 56.5 -23.5t23.5 -56.5v-200q-16 20 -35 38t-45 24v138v0h-560v0v-560v0h166q-3 -11 -4.5 -22t-1.5 -22v-36h-160zM280 600h280q26 20 57 30t63 10v40h-400v-80zM280 440h200q0 21 4.5 41t12.5 39h-217v-80zM280 280h138q11 9 23.5 16t25.5 13v51h-187v-80zM200 200 v560v0v0v-137v12v5v-59v-141v-56v-56v-17v-17v-47v-47zM680 440v0v0v0z" />
<glyph unicode="cognition" d="M491 339q70 0 119 45t49 109q0 57 -36.5 96.5t-88.5 39.5q-47 0 -79.5 -30t-32.5 -74q0 -19 7.5 -37t21.5 -33l57 57q-3 2 -4.5 5t-1.5 7q0 11 9 17.5t23 6.5q20 0 33 -16.5t13 -39.5q0 -31 -25.5 -52.5t-62.5 -21.5q-47 0 -79.5 38t-32.5 93q0 29 11 55.5t31 46.5 l-57 57q-32 -31 -49 -72t-17 -86q0 -88 56 -149.5t136 -61.5zM240 80v172q-57 52 -88.5 121.5t-31.5 146.5q0 150 105 255t255 105q125 0 221.5 -73.5t125.5 -191.5l52 -205q5 -19 -7 -34.5t-32 -15.5h-80v-120q0 -33 -23.5 -56.5t-56.5 -23.5h-80v-80h-80v160h160v0v200 h108l-38 155q-23 91 -98 148t-172 57q-116 0 -198 -81t-82 -197q0 -60 24.5 -114t69.5 -96l26 -24v-208h-80zM494 440v0v0v0v0v0v0v0z" />
<glyph unicode="conditions" d="M400 720q-33 0 -56.5 23.5t-23.5 56.5t23.5 56.5t56.5 23.5t56.5 -23.5t23.5 -56.5t-23.5 -56.5t-56.5 -23.5zM660 240q42 0 71 29t29 71t-29 71t-71 29t-71 -29t-29 -71t29 -71t71 -29zM864 80l-108 108q-22 -14 -46 -21t-50 -7q-75 0 -127.5 52.5t-52.5 127.5 t52.5 127.5t127.5 52.5t127.5 -52.5t52.5 -127.5q0 -26 -7 -50t-21 -46l108 -108zM440 80v121q15 -24 35.5 -44t44.5 -36v-41h-80zM280 80v520q-61 5 -121 14.5t-119 25.5l20 80q84 -23 168.5 -31.5t171.5 -8.5t171.5 8.5t168.5 31.5l20 -80q-59 -16 -119 -25.5t-121 -14.5 v-41q-54 -35 -87 -92.5t-33 -126.5v-10q0 -5 1 -10h-41v-240h-80z" />
<glyph unicode="congenital" d="M392 200q-100 0 -185.5 51t-132.5 140l-25 46q-11 22 -8.5 46t18.5 43l201 245q9 11 21 18t26 9t27 0.5t26 -8.5l120 -64l98 54q17 10 36 7t33 -17q14 -13 17.5 -31.5t-4.5 -35.5l-124 -289q-11 -26 -36 -39t-54 -7l-304 65q36 -71 103.5 -112t146.5 -41h179q55 0 106 21 t90 59h-34q-37 0 -60.5 28t-18.5 64l27 178q3 19 15 31t28 17t32.5 0.5t29.5 -18.5l114 -134q15 -18 18.5 -41.5t-6.5 -44.5l-15 -32q-45 -95 -132.5 -151.5t-193.5 -56.5h-179zM825 441l15 33v0l-86 100v0l-20 -133v0h91zM151 512l312 -66v0l101 235v0l-84 -47l-159 86v0z M358 583v0v0v0v0zM787 474v0v0v0v0z" />
<glyph unicode="deceased" d="M426 160q-9 26 -23 48t-33 41t-41 33.5t-48 23.5q2 -29 14 -54t32 -45t45 -32.5t54 -14.5zM534 160q29 3 54 15t45 32t32 45t15 54q-26 -9 -48.5 -23t-41.5 -33t-33 -41.5t-23 -48.5zM480 520q66 0 113 47t47 113v48l-70 -59l-90 109l-90 -109l-70 59v-48q0 -66 47 -113 t113 -47zM440 80q-100 0 -170 70t-70 170v80q71 1 134 -29t106 -81v153q-86 14 -143 80.5t-57 156.5v136q0 26 23 36.5t43 -6.5l74 -64l69 84q12 14 31 14t31 -14l69 -84l74 64q20 17 43 6.5t23 -36.5v-136q0 -90 -57 -156.5t-143 -80.5v-153q43 51 106 81t134 29v-80 q0 -100 -70 -170t-170 -70h-80zM480 649v0v0v0v0zM607 233v0v0v0zM354 233v0v0v0z" />
<glyph unicode="dentistry" d="M680 875q66 0 113 -47t47 -113q0 -11 -1.5 -29.5t-4.5 -42.5l-55 -403q-5 -38 -34.5 -62t-67.5 -24q-23 0 -42.5 10t-32.5 28l-107 156q-2 4 -6.5 5.5t-9.5 1.5q-4 0 -16 -9l-104 -151q-14 -20 -34.5 -30.5t-43.5 -10.5q-38 0 -67 24.5t-34 62.5l-54 402q-3 24 -4.5 42.5 t-1.5 29.5q0 66 47 113t113 47q36 0 57.5 -9.5t41.5 -20.5t42.5 -20.5t58.5 -9.5t58.5 9.5t42.5 20.5t42 20.5t57 9.5zM680 795q-23 0 -40.5 -9.5t-38.5 -20.5t-49 -20.5t-72 -9.5t-72 9.5t-49 20.5t-38.5 20.5t-40.5 9.5q-33 0 -56.5 -23.5t-23.5 -56.5q0 -8 1 -23t4 -35 l55 -405q1 -8 7 -12.5t14 -4.5q5 0 9 2t6 6l101 148q14 20 36 32t47 12t47 -12t36 -32l103 -151q2 -3 5 -4.5t7 -1.5q8 0 14.5 4.5t7.5 12.5l55 406q3 20 4 35t1 23q0 33 -23.5 56.5t-56.5 23.5zM480 515v0v0v0v0v0v0v0v0v0v0v0v0v0v0v0z" />
<glyph unicode="dermatology" d="M80 120v360q0 33 23.5 56.5t56.5 23.5h200v-80q0 -50 35 -85t85 -35t85 35t35 85v80h200q33 0 56.5 -23.5t23.5 -56.5v-360h-800zM160 200h640v280v0h-120q0 -83 -58.5 -141.5t-141.5 -58.5t-141.5 58.5t-58.5 141.5h-120v0v-280zM480 440q-17 0 -28.5 11.5t-11.5 28.5 q0 109 25 215t109 175q13 11 29 9.5t27 -14.5t9.5 -29t-14.5 -27q-70 -59 -87.5 -148t-17.5 -181q0 -17 -11.5 -28.5t-28.5 -11.5zM230 340q13 0 21.5 8.5t8.5 21.5t-8.5 21.5t-21.5 8.5t-21.5 -8.5t-8.5 -21.5t8.5 -21.5t21.5 -8.5zM270 240q13 0 21.5 8.5t8.5 21.5 t-8.5 21.5t-21.5 8.5t-21.5 -8.5t-8.5 -21.5t8.5 -21.5t21.5 -8.5zM730 340q13 0 21.5 8.5t8.5 21.5t-8.5 21.5t-21.5 8.5t-21.5 -8.5t-8.5 -21.5t8.5 -21.5t21.5 -8.5zM160 200v0h160h160h160h160v0v0h-640z" />
<glyph unicode="diagnosis" d="M320 200h320v80h-320v-80zM320 320h320v80h-320v-80zM480 468q66 60 113 106.5t47 97.5q0 36 -26 62t-62 26q-21 0 -40.5 -8.5t-31.5 -23.5q-12 15 -31.5 23.5t-40.5 8.5q-36 0 -62 -26t-26 -62q0 -51 45.5 -96t114.5 -108zM720 80h-480q-33 0 -56.5 23.5t-23.5 56.5v640 q0 33 23.5 56.5t56.5 23.5h480q33 0 56.5 -23.5t23.5 -56.5v-640q0 -33 -23.5 -56.5t-56.5 -23.5zM240 160h480v0v640v0h-480v0v-640v0zM240 160v640v0v0v-640v0z" />
<glyph unicode="endocrinology" d="M400 280q17 0 28.5 11.5t11.5 28.5q0 45 -21.5 82.5t-58.5 59.5v-142q0 -17 11.5 -28.5t28.5 -11.5zM560 280q17 0 28.5 11.5t11.5 28.5v142q-37 -22 -58.5 -59.5t-21.5 -82.5q0 -17 11.5 -28.5t28.5 -11.5zM92 122l-25 76q42 14 67.5 49t25.5 79v418q-24 26 -43.5 56 t-33.5 64l74 32q42 -98 129.5 -157t193.5 -59t193.5 59t129.5 157l74 -32q-14 -34 -34 -64t-43 -56v-418q0 -44 25 -79t67 -49l-25 -76q-66 22 -106.5 78t-40.5 126v348q-53 -35 -113.5 -54.5t-126.5 -19.5t-127 19.5t-113 54.5v-348q0 -70 -41 -126t-107 -78zM400 200 q-50 0 -85 35t-35 85v251l54 -13q46 -11 83.5 -38.5t62.5 -65.5q25 38 62.5 65.5t83.5 38.5l54 13v-251q0 -50 -35 -85t-85 -35q-23 0 -43.5 8.5t-36.5 22.5q-16 -14 -36.5 -22.5t-43.5 -8.5zM560 320v0v0zM400 320v0v0z" />
<glyph unicode="ent" d="M240 80v172q-57 52 -88.5 121.5t-31.5 146.5q0 150 105 255t255 105q125 0 221.5 -73.5t125.5 -191.5l52 -205q5 -19 -7 -34.5t-32 -15.5h-80v-120q0 -33 -23.5 -56.5t-56.5 -23.5h-80v-80h-80v160h160v0v200h108l-38 155q-23 91 -98 148t-172 57q-116 0 -198 -81 t-82 -197q0 -60 24.5 -114t69.5 -96l26 -24v-208h-80zM494 440v0v0v0v0v0v0v0zM364 80h80l25 240h131v80h-123l5 44q2 15 13 25.5t26 10.5h159v80h-158q-47 0 -81 -31t-39 -77z" />
<glyph unicode="export_notes" d="M648 140l112 112v-92h40v160h-160v-40h92l-112 -112zM200 120q-33 0 -56.5 23.5t-23.5 56.5v560q0 33 23.5 56.5t56.5 23.5h560q33 0 56.5 -23.5t23.5 -56.5v-268q-19 9 -39 15.5t-41 9.5v243v0h-560v0v-560v0h242q3 -22 9.5 -42t15.5 -38h-267zM200 240v-20v-20v0v560v0 v0v-243v3v-82v-198zM280 280h163q3 21 9.5 41t14.5 39h-187v-80zM280 440h244q32 30 71.5 50t84.5 27v3h-400v-80zM280 600h400v80h-400v-80zM720 40q-83 0 -141.5 58.5t-58.5 141.5t58.5 141.5t141.5 58.5t141.5 -58.5t58.5 -141.5t-58.5 -141.5t-141.5 -58.5z" />
<glyph unicode="family_history" d="M480 60q-63 0 -106.5 43.5t-43.5 106.5q0 52 31 91.5t79 53.5v85h-240v160h-100v280h280v-280h-100v-80h400v85q-48 14 -79 53.5t-31 91.5q0 63 43.5 106.5t106.5 43.5t106.5 -43.5t43.5 -106.5q0 -52 -31 -91.5t-79 -53.5v-165h-240v-85q48 -14 79 -53.5t31 -91.5 q0 -63 -43.5 -106.5t-106.5 -43.5zM720 680q29 0 49.5 20.5t20.5 49.5t-20.5 49.5t-49.5 20.5t-49.5 -20.5t-20.5 -49.5t20.5 -49.5t49.5 -20.5zM180 680h120v120h-120v-120zM480 140q29 0 49.5 20.5t20.5 49.5t-20.5 49.5t-49.5 20.5t-49.5 -20.5t-20.5 -49.5t20.5 -49.5 t49.5 -20.5zM240 740zM720 750v0v0v0zM480 210v0v0v0z" />
<glyph unicode="flowsheet" d="M160 480v-160v-36v-44v0v480v0v0v-69v-91v-42v-38zM560 120q17 0 28.5 11.5t11.5 28.5t-11.5 28.5t-28.5 11.5t-28.5 -11.5t-11.5 -28.5t11.5 -28.5t28.5 -11.5zM800 520q17 0 28.5 11.5t11.5 28.5t-11.5 28.5t-28.5 11.5t-28.5 -11.5t-11.5 -28.5t11.5 -28.5t28.5 -11.5 zM240 520h200v80h-200v-80zM240 360h200v80h-200v-80zM160 160q-33 0 -56.5 23.5t-23.5 56.5v480q0 33 23.5 56.5t56.5 23.5h640q33 0 56.5 -23.5t23.5 -56.5h-80v0h-640v0v-480v0h200v-80h-200zM560 40q-50 0 -85 35t-35 85q0 39 22.5 70t57.5 43v127h240v47 q-35 12 -57.5 43t-22.5 70q0 50 35 85t85 35t85 -35t35 -85q0 -39 -22.5 -70t-57.5 -43v-127h-240v-47q35 -12 57.5 -43t22.5 -70q0 -50 -35 -85t-85 -35z" />
<glyph unicode="call_made" d="M216 160l-56 56l464 464h-264v80h400v-400h-80v264z" />
<glyph unicode="call_merge" d="M296 160l-56 56l200 200v269l-103 -103l-57 57l200 200l201 -201l-57 -57l-104 104v-301zM664 159l-128 127l57 57l127 -128z" />
<glyph unicode="call_missed" d="M480 263l-280 280v-183h-80v320h320v-80h-184l224 -224l304 304l56 -57z" />
<glyph unicode="call_received" d="M200 200v400h80v-264l464 464l56 -56l-464 -464h264v-80h-400z" />
<glyph unicode="call_split" d="M440 160v304l-200 200v-104h-80v240h240v-80h-104l224 -224v-336h-80zM594 536l-58 58l128 126h-104v80h240v-240h-80v104z" />
<glyph unicode="clear_all" d="M120 280v80h560v-80h-560zM200 440v80h560v-80h-560zM280 600v80h560v-80h-560z" />
<glyph unicode="contacts" d="M160 40v80h640v-80h-640zM160 840v80h640v-80h-640zM480 440q50 0 85 35t35 85t-35 85t-85 35t-85 -35t-35 -85t35 -85t85 -35zM160 160q-33 0 -56.5 23.5t-23.5 56.5v480q0 33 23.5 56.5t56.5 23.5h640q33 0 56.5 -23.5t23.5 -56.5v-480q0 -33 -23.5 -56.5t-56.5 -23.5 h-640zM230 240q45 56 109 88t141 32t141 -32t109 -88h70v0v480v0h-640v0v-480v0h70zM348 240h264q-29 20 -62.5 30t-69.5 10t-69.5 -10t-62.5 -30zM480 520q-17 0 -28.5 11.5t-11.5 28.5t11.5 28.5t28.5 11.5t28.5 -11.5t11.5 -28.5t-11.5 -28.5t-28.5 -11.5zM480 480v0v0v0 v0v0v0v0z" />
<glyph unicode="dialer_sip" d="M798 120q-125 0 -247 54.5t-222 154.5t-154.5 222t-54.5 247q0 18 12 30t30 12h162q14 0 25 -9.5t13 -22.5l26 -140q2 -16 -1 -27t-11 -19l-97 -98q20 -37 47.5 -71.5t60.5 -66.5q31 -31 65 -57.5t72 -48.5l94 94q9 9 23.5 13.5t28.5 2.5l138 -28q14 -4 23 -14.5t9 -23.5 v-162q0 -18 -12 -30t-30 -12zM241 600l66 66v0l-17 94v0h-89v0q5 -41 14 -81t26 -79zM599 242q39 -17 79.5 -27t81.5 -13v0v88v0l-94 19v0zM241 600v0v0v0v0zM599 242v0v0v0v0zM480 640v40h80v40h-80v120h120v-40h-80v-40h80v-120h-120zM640 640v200h40v-200h-40zM720 640 v200h120v-120h-80v-80h-40zM760 760h40v40h-40v-40z" />
<glyph unicode="dialpad" d="M480 40q-33 0 -56.5 23.5t-23.5 56.5t23.5 56.5t56.5 23.5t56.5 -23.5t23.5 -56.5t-23.5 -56.5t-56.5 -23.5zM240 760q-33 0 -56.5 23.5t-23.5 56.5t23.5 56.5t56.5 23.5t56.5 -23.5t23.5 -56.5t-23.5 -56.5t-56.5 -23.5zM240 520q-33 0 -56.5 23.5t-23.5 56.5t23.5 56.5 t56.5 23.5t56.5 -23.5t23.5 -56.5t-23.5 -56.5t-56.5 -23.5zM240 280q-33 0 -56.5 23.5t-23.5 56.5t23.5 56.5t56.5 23.5t56.5 -23.5t23.5 -56.5t-23.5 -56.5t-56.5 -23.5zM720 760q-33 0 -56.5 23.5t-23.5 56.5t23.5 56.5t56.5 23.5t56.5 -23.5t23.5 -56.5t-23.5 -56.5 t-56.5 -23.5zM480 280q-33 0 -56.5 23.5t-23.5 56.5t23.5 56.5t56.5 23.5t56.5 -23.5t23.5 -56.5t-23.5 -56.5t-56.5 -23.5zM720 280q-33 0 -56.5 23.5t-23.5 56.5t23.5 56.5t56.5 23.5t56.5 -23.5t23.5 -56.5t-23.5 -56.5t-56.5 -23.5zM720 520q-33 0 -56.5 23.5 t-23.5 56.5t23.5 56.5t56.5 23.5t56.5 -23.5t23.5 -56.5t-23.5 -56.5t-56.5 -23.5zM480 520q-33 0 -56.5 23.5t-23.5 56.5t23.5 56.5t56.5 23.5t56.5 -23.5t23.5 -56.5t-23.5 -56.5t-56.5 -23.5zM480 760q-33 0 -56.5 23.5t-23.5 56.5t23.5 56.5t56.5 23.5t56.5 -23.5 t23.5 -56.5t-23.5 -56.5t-56.5 -23.5z" />
<glyph unicode="hangout_video" d="M240 320h320v128l160 -128v320l-160 -128v128h-320v-320zM160 160q-33 0 -56.5 23.5t-23.5 56.5v480q0 33 23.5 56.5t56.5 23.5h640q33 0 56.5 -23.5t23.5 -56.5v-480q0 -33 -23.5 -56.5t-56.5 -23.5h-640zM160 240h640v0v480v0h-640v0v-480v0zM160 720v-480v0v0v480v0z " />
<glyph unicode="hangout_video_off" d="M436 638h124v-124zM560 514l160 126v-286zM870 204q5 9 7.5 18t2.5 18v480q0 33 -23.5 56.5t-56.5 23.5h-526l80 -80h446v0v-446v0zM160 800l80 -80h-80v0v-480v0h446l-80 80h-286v286l-212 214l56 56l792 -792l-56 -56l-134 132h-526q-33 0 -56.5 23.5t-23.5 56.5v480 q0 33 23.5 56.5t56.5 23.5zM578 496v0v0v0zM384 462v0v0v0z" />
<glyph unicode="invert_colors_off" d="M771 302l-291 291v175l-89 -87l-56 56l145 143l226 -223q48 -48 71 -103.5t23 -117.5q0 -38 -8 -72.5t-21 -61.5zM792 56l-124 124q-42 -31 -91.5 -45.5t-96.5 -14.5q-133 0 -226.5 91.5t-93.5 224.5q0 51 16 98t48 90l-168 168l56 56l736 -736zM480 200v167l-200 200 q-21 -32 -30.5 -64.5t-9.5 -66.5q0 -100 70 -168t170 -68z" />
<glyph unicode="live_help" d="M476 280q21 0 35.5 14.5t14.5 35.5t-14.5 35.5t-35.5 14.5t-35.5 -14.5t-14.5 -35.5t14.5 -35.5t35.5 -14.5zM440 434h74q0 17 1.5 29t6.5 23t12.5 20.5t21.5 23.5q35 35 49.5 58.5t14.5 53.5q0 53 -36 85.5t-97 32.5q-55 0 -93.5 -27t-53.5 -75l66 -26q7 27 28 43.5 t49 16.5q27 0 45 -14.5t18 -38.5q0 -17 -11 -36t-37 -42q-17 -14 -27.5 -27.5t-17.5 -28.5t-10 -31.5t-3 -39.5zM480 40l-120 120h-160q-33 0 -56.5 23.5t-23.5 56.5v560q0 33 23.5 56.5t56.5 23.5h560q33 0 56.5 -23.5t23.5 -56.5v-560q0 -33 -23.5 -56.5t-56.5 -23.5h-160 zM200 240h192l88 -88l88 88h192v0v560v0h-560v0v-560v0zM480 520v0v0v0v0v0v0z" />
<glyph unicode="location_off" d="M560 560q0 33 -23.5 56.5t-56.5 23.5q-10 0 -19 -2t-17 -7l107 -107q5 8 7 17t2 19zM728 347l-58 58q25 42 37.5 78.5t12.5 68.5q0 109 -69.5 178.5t-170.5 69.5q-44 0 -82.5 -13.5t-69.5 -39.5l-57 57q43 37 97 56.5t112 19.5q127 0 223.5 -89t96.5 -239 q0 -48 -18 -98.5t-54 -106.5zM571 276l-327 327q-2 -12 -3 -25t-1 -26q0 -71 59 -162.5t181 -203.5q26 23 48.5 45.5t42.5 44.5zM819 28l-192 192q-32 -34 -68 -69t-79 -71q-161 137 -240.5 254.5t-79.5 217.5q0 32 5 61t14 55l-152 152l57 57l792 -792zM408 439v0v0z M499 576v0v0z" />
<glyph unicode="chat" d="M240 400h320v80h-320v-80zM240 520h480v80h-480v-80zM240 640h480v80h-480v-80zM80 80v720q0 33 23.5 56.5t56.5 23.5h640q33 0 56.5 -23.5t23.5 -56.5v-480q0 -33 -23.5 -56.5t-56.5 -23.5h-560zM206 320h594v0v480v0h-640v0v-525zM160 320v480v0v0v-480v0z" />
<glyph unicode="chat_bubble_outline" d="M80 80v720q0 33 23.5 56.5t56.5 23.5h640q33 0 56.5 -23.5t23.5 -56.5v-480q0 -33 -23.5 -56.5t-56.5 -23.5h-560zM206 320h594v0v480v0h-640v0v-525zM160 320v480v0v0v-480v0z" />
<glyph unicode="call" d="M798 120q-125 0 -247 54.5t-222 154.5t-154.5 222t-54.5 247q0 18 12 30t30 12h162q14 0 25 -9.5t13 -22.5l26 -140q2 -16 -1 -27t-11 -19l-97 -98q20 -37 47.5 -71.5t60.5 -66.5q31 -31 65 -57.5t72 -48.5l94 94q9 9 23.5 13.5t28.5 2.5l138 -28q14 -4 23 -14.5t9 -23.5 v-162q0 -18 -12 -30t-30 -12zM241 600l66 66v0l-17 94v0h-89v0q5 -41 14 -81t26 -79zM599 242q39 -17 79.5 -27t81.5 -13v0v88v0l-94 19v0zM241 600v0v0v0v0zM599 242v0v0v0v0z" />
<glyph unicode="contact_mail" d="M560 520h280v200h-280v-200zM700 570l-100 70v40l100 -70l100 70v-40zM80 120q-33 0 -56.5 23.5t-23.5 56.5v560q0 33 23.5 56.5t56.5 23.5h800q33 0 56.5 -23.5t23.5 -56.5v-560q0 -33 -23.5 -56.5t-56.5 -23.5h-800zM636 200h244v0v560v0h-800v0v-560v0h4 q42 75 116 117.5t160 42.5t160 -42.5t116 -117.5zM360 400q50 0 85 35t35 85t-35 85t-85 35t-85 -35t-35 -85t35 -85t85 -35zM182 200h356q-34 38 -80.5 59t-97.5 21t-97 -21t-81 -59zM360 480q-17 0 -28.5 11.5t-11.5 28.5t11.5 28.5t28.5 11.5t28.5 -11.5t11.5 -28.5 t-11.5 -28.5t-28.5 -11.5zM480 480v0v0v0v0v0v0v0z" />
<glyph unicode="speaker_phone" d="M338 620l-58 58q41 39 92.5 60.5t107.5 21.5t107.5 -21.5t92.5 -60.5l-58 -58q-29 29 -65 44.5t-77 15.5t-77 -15.5t-65 -44.5zM226 736l-56 56q63 62 142.5 95t167.5 33t167.5 -33t142.5 -95l-56 -56q-51 50 -117 77t-137 27t-137 -27t-117 -77zM400 80 q-33 0 -56.5 23.5t-23.5 56.5v320q0 33 23.5 56.5t56.5 23.5h160q33 0 56.5 -23.5t23.5 -56.5v-320q0 -33 -23.5 -56.5t-56.5 -23.5h-160zM560 160v320v0h-160v0v-320v0h160zM560 160h-160v0v0h160v0v0z" />
<glyph unicode="stay_current_landscape" d="M120 200q-33 0 -56.5 23.5t-23.5 56.5v400q0 33 23.5 56.5t56.5 23.5h720q33 0 56.5 -23.5t23.5 -56.5v-400q0 -33 -23.5 -56.5t-56.5 -23.5h-720zM160 280v400h-40v0v-400v0h40zM240 280h480v400h-480v-400zM800 280h40v0v400v0h-40v-400zM160 680h-40v0v0h40zM800 680 h40v0v0h-40z" />
<glyph unicode="stay_current_portrait" d="M280 40q-33 0 -56.5 23.5t-23.5 56.5v720q0 33 23.5 56.5t56.5 23.5h400q33 0 56.5 -23.5t23.5 -56.5v-720q0 -33 -23.5 -56.5t-56.5 -23.5h-400zM280 160v-40v0h400v0v40h-400zM280 240h400v480h-400v-480zM280 800h400v40v0h-400v0v-40zM280 800v40v0v0v-40zM280 160 v-40v0v0v40z" />
<glyph unicode="stay_primary_landscape" d="M120 200q-33 0 -56.5 23.5t-23.5 56.5v400q0 33 23.5 56.5t56.5 23.5h720q33 0 56.5 -23.5t23.5 -56.5v-400q0 -33 -23.5 -56.5t-56.5 -23.5h-720zM160 280v400h-40v0v-400v0h40zM240 280h480v400h-480v-400zM800 280h40v0v400v0h-40v-400zM160 680h-40v0v0h40zM800 680 h40v0v0h-40z" />
<glyph unicode="stay_primary_portrait" d="M480 280q-17 0 -28.5 11.5t-11.5 28.5t11.5 28.5t28.5 11.5t28.5 -11.5t11.5 -28.5t-11.5 -28.5t-28.5 -11.5zM440 440v240h80v-240h-80zM280 40q-33 0 -56.5 23.5t-23.5 56.5v720q0 33 23.5 56.5t56.5 23.5h400q33 0 56.5 -23.5t23.5 -56.5v-720q0 -33 -23.5 -56.5 t-56.5 -23.5h-400zM280 160v-40v0h400v0v40h-400zM280 240h400v480h-400v-480zM280 800h400v40v0h-400v0v-40zM280 800v40v0v0v-40zM280 160v-40v0v0v40z" />
<glyph unicode="swap_calls" d="M240 200l-160 160l56 58l64 -64v286q0 66 47 113t113 47t113 -47t47 -113v-280q0 -33 23.5 -56.5t56.5 -23.5t56.5 23.5t23.5 56.5v286l-64 -64l-56 58l160 160l160 -160l-56 -58l-64 64v-286q0 -66 -47 -113t-113 -47t-113 47t-47 113v280q0 33 -23.5 56.5t-56.5 23.5 t-56.5 -23.5t-23.5 -56.5v-286l64 64l56 -58z" />
<glyph unicode="voicemail" d="M260 320q-75 0 -127.5 52.5t-52.5 127.5t52.5 127.5t127.5 52.5t127.5 -52.5t52.5 -127.5q0 -27 -8 -52t-22 -48h140q-14 23 -22 48t-8 52q0 75 52.5 127.5t127.5 52.5t127.5 -52.5t52.5 -127.5t-52.5 -127.5t-127.5 -52.5h-440zM260 400q42 0 71 29t29 71t-29 71t-71 29 t-71 -29t-29 -71t29 -71t71 -29zM700 400q42 0 71 29t29 71t-29 71t-71 29t-71 -29t-29 -71t29 -71t71 -29z" />
<glyph unicode="vpn_key" d="M280 240q-100 0 -170 70t-70 170t70 170t170 70q66 0 121 -33t87 -87h432v-240h-80v-120h-240v120h-112q-32 -54 -87 -87t-121 -33zM280 320q66 0 106 40.5t48 79.5h246v-120h80v120h80v80h-406q-8 39 -48 79.5t-106 40.5t-113 -47t-47 -113t47 -113t113 -47zM280 400 q33 0 56.5 23.5t23.5 56.5t-23.5 56.5t-56.5 23.5t-56.5 -23.5t-23.5 -56.5t23.5 -56.5t56.5 -23.5zM280 480v0v0v0v0v0v0z" />
<glyph unicode="phonelink_erase" d="M576 320l-56 56l104 104l-104 104l56 56l104 -104l104 104l56 -56l-104 -104l104 -104l-56 -56l-104 104zM240 40q-33 0 -56.5 23.5t-23.5 56.5v720q0 33 23.5 56.5t56.5 23.5h400q33 0 56.5 -23.5t23.5 -56.5v-160h-80v40h-400v-480h400v40h80v-160q0 -33 -23.5 -56.5 t-56.5 -23.5h-400zM240 160v-40v0h400v0v40h-400zM240 800h400v40v0h-400v0v-40zM240 800v40v0v0v-40zM240 160v-40v0v0v40z" />
<glyph unicode="phonelink_lock" d="M634 320q-14 0 -24 10t-10 24v132q0 14 10 24t24 10h6v40q0 33 23.5 56.5t56.5 23.5t56.5 -23.5t23.5 -56.5v-40h6q14 0 24 -10t10 -24v-132q0 -14 -10 -24t-24 -10h-172zM680 520h80v40q0 17 -11.5 28.5t-28.5 11.5t-28.5 -11.5t-11.5 -28.5v-40zM280 40 q-33 0 -56.5 23.5t-23.5 56.5v720q0 33 23.5 56.5t56.5 23.5h400q33 0 56.5 -23.5t23.5 -56.5v-160h-80v40h-400v-480h400v40h80v-160q0 -33 -23.5 -56.5t-56.5 -23.5h-400zM280 160v-40v0h400v0v40h-400zM280 800h400v40v0h-400v0v-40zM280 800v40v0v0v-40zM280 160v-40v0 v0v40z" />
<glyph unicode="phonelink_ring" d="M734 366l-58 58q12 11 18.5 25.5t6.5 30.5t-6.5 30.5t-18.5 25.5l58 58q23 -23 35 -52.5t12 -61.5t-12 -61.5t-35 -52.5zM832 268l-56 56q31 31 48 71t17 85t-17 85t-48 71l56 56q43 -42 66 -97t23 -115t-23 -115t-66 -97zM280 40q-33 0 -56.5 23.5t-23.5 56.5v720 q0 33 23.5 56.5t56.5 23.5h400q33 0 56.5 -23.5t23.5 -56.5v-160h-80v40h-400v-480h400v40h80v-160q0 -33 -23.5 -56.5t-56.5 -23.5h-400zM280 160v-40v0h400v0v40h-400zM280 800h400v40v0h-400v0v-40zM280 800v40v0v0v-40zM280 160v-40v0v0v40z" />
<glyph unicode="present_to_all" d="M440 320h80v166l64 -63l57 57l-161 160l-160 -160l57 -56l63 63v-167zM160 160q-33 0 -56.5 23.5t-23.5 56.5v480q0 33 23.5 56.5t56.5 23.5h640q33 0 56.5 -23.5t23.5 -56.5v-480q0 -33 -23.5 -56.5t-56.5 -23.5h-640zM160 240h640v0v480v0h-640v0v-480v0zM160 240v480 v0v0v-480v0z" />
<glyph unicode="import_contacts" d="M260 320q47 0 91.5 -10.5t88.5 -31.5v394q-41 24 -87 36t-93 12q-36 0 -71.5 -7t-68.5 -21v0v-396v0q35 12 69.5 18t70.5 6zM520 278q44 21 88.5 31.5t91.5 10.5q36 0 70.5 -6t69.5 -18v0v396v0q-33 14 -68.5 21t-71.5 7q-47 0 -93 -12t-87 -36v-394zM480 160 q-48 38 -104 59t-116 21q-42 0 -82.5 -11t-77.5 -31q-21 -11 -40.5 1t-19.5 35v482q0 11 5.5 21t16.5 15q46 24 96 36t102 12q58 0 113.5 -15t106.5 -45q51 30 106.5 45t113.5 15q52 0 102 -12t96 -36q11 -5 16.5 -15t5.5 -21v-482q0 -23 -19.5 -35t-40.5 -1 q-37 20 -77.5 31t-82.5 11q-60 0 -116 -21t-104 -59zM280 494v0v0v0v0v0v0z" />
<glyph unicode="email" d="M160 160q-33 0 -56.5 23.5t-23.5 56.5v480q0 33 23.5 56.5t56.5 23.5h640q33 0 56.5 -23.5t23.5 -56.5v-480q0 -33 -23.5 -56.5t-56.5 -23.5h-640zM480 440l-320 200v-400v0h640v0v400zM480 520l320 200h-640zM160 640v80v-80v-400v0v0v400z" />
<glyph unicode="screen_share" d="M320 400h80v80q0 17 11.5 28.5t28.5 11.5h80v-80l120 120l-120 120v-80h-80q-50 0 -85 -35t-35 -85v-80zM80 120q-17 0 -28.5 11.5t-11.5 28.5t11.5 28.5t28.5 11.5h800q17 0 28.5 -11.5t11.5 -28.5t-11.5 -28.5t-28.5 -11.5h-800zM160 240q-33 0 -56.5 23.5t-23.5 56.5 v440q0 33 23.5 56.5t56.5 23.5h640q33 0 56.5 -23.5t23.5 -56.5v-440q0 -33 -23.5 -56.5t-56.5 -23.5h-640zM160 320h640v0v440v0h-640v0v-440v0zM160 320v440v0v0v-440v0z" />
<glyph unicode="stop_screen_share" d="M577 497l-103 103h46v80l120 -120zM828 246l-74 74h46v0v440v0h-486l-80 80h566q33 0 56.5 -23.5t23.5 -56.5v-440q0 -26 -14.5 -45.5t-37.5 -28.5zM820 28l-92 92h-688v80h607l-40 40h-447q-33 0 -56.5 23.5t-23.5 56.5v446v0l-52 54l56 56l792 -792zM400 446v-46h-80 v80q0 11 1 21t6 19l-167 167v0v-367v0h366zM534 540v0v0v0zM343 504v0v0z" />
<glyph unicode="call_missed_outgoing" d="M480 263l-360 360l56 57l304 -304l224 224h-184v80h320v-320h-80v183z" />
<glyph unicode="rss_feed" d="M200 120q-33 0 -56.5 23.5t-23.5 56.5t23.5 56.5t56.5 23.5t56.5 -23.5t23.5 -56.5t-23.5 -56.5t-56.5 -23.5zM680 120q0 117 -44 218.5t-120 177.5t-177.5 120t-218.5 44v120q142 0 265 -53t216 -146t146 -216t53 -265h-120zM440 120q0 67 -25 124.5t-69 101.5 t-101.5 69t-124.5 25v120q92 0 171.5 -34.5t139.5 -94.5t94.5 -139.5t34.5 -171.5h-120z" />
<glyph unicode="alternate_email" d="M480 80q-83 0 -156 31.5t-127 85.5t-85.5 127t-31.5 156t31.5 156t85.5 127t127 85.5t156 31.5t156 -31.5t127 -85.5t85.5 -127t31.5 -156v-58q0 -59 -40.5 -100.5t-99.5 -41.5q-35 0 -66 15t-52 43q-29 -29 -65.5 -43.5t-76.5 -14.5q-83 0 -141.5 58.5t-58.5 141.5 t58.5 141.5t141.5 58.5t141.5 -58.5t58.5 -141.5v-58q0 -26 17 -44t43 -18t43 18t17 44v58q0 134 -93 227t-227 93t-227 -93t-93 -227t93 -227t227 -93h200v-80h-200zM480 360q50 0 85 35t35 85t-35 85t-85 35t-85 -35t-35 -85t35 -85t85 -35z" />
<glyph unicode="mobile_screen_share" d="M360 360v60q0 50 35 85t85 35h40v80l120 -120l-120 -120v80h-40q-17 0 -28.5 -11.5t-11.5 -28.5v-60h-80zM280 40q-33 0 -56.5 23.5t-23.5 56.5v720q0 33 23.5 56.5t56.5 23.5h400q33 0 56.5 -23.5t23.5 -56.5v-720q0 -33 -23.5 -56.5t-56.5 -23.5h-400zM280 160v-40v0 h400v0v40h-400zM280 240h400v480h-400v-480zM280 800h400v40v0h-400v0v-40zM280 800v40v0v0v-40zM280 160v-40v0v0v40z" />
<glyph unicode="cancel_presentation" d="M376 320l104 104l104 -104l56 56l-104 104l104 104l-56 56l-104 -104l-104 104l-56 -56l104 -104l-104 -104zM160 160q-33 0 -56.5 23.5t-23.5 56.5v480q0 33 23.5 56.5t56.5 23.5h640q33 0 56.5 -23.5t23.5 -56.5v-480q0 -33 -23.5 -56.5t-56.5 -23.5h-640zM160 240h640 v0v480v0h-640v0v-480v0zM160 240v480v0v0v-480v0z" />
<glyph unicode="pause_presentation" d="M360 320h80v320h-80v-320zM520 320h80v320h-80v-320zM160 160q-33 0 -56.5 23.5t-23.5 56.5v480q0 33 23.5 56.5t56.5 23.5h640q33 0 56.5 -23.5t23.5 -56.5v-480q0 -33 -23.5 -56.5t-56.5 -23.5h-640zM160 240h640v0v480v0h-640v0v-480v0zM160 240v480v0v0v-480v0z" />
<glyph unicode="unsubscribe" d="M480 440l-320 200v-400v0h320q0 -21 3 -40.5t9 -39.5h-332q-33 0 -56.5 23.5t-23.5 56.5v480q0 33 23.5 56.5t56.5 23.5h640q33 0 56.5 -23.5t23.5 -56.5v-228q-18 9 -38.5 15t-41.5 9v124zM480 520l320 200h-640zM760 40q-83 0 -141.5 58.5t-58.5 141.5t58.5 141.5 t141.5 58.5t141.5 -58.5t58.5 -141.5t-58.5 -141.5t-141.5 -58.5zM640 220h240v40h-240v-40zM160 240v0v0v400v80v-80v-400v0z" />
<glyph unicode="cell_wifi" d="M442 440l-77 77q16 16 35.5 24.5t41.5 8.5t41.5 -8.5t35.5 -24.5zM240 80l640 642v-642h-640zM720 160h80v368l-80 -80v-288zM314 568l-52 52q36 36 82.5 55t97.5 19t97.5 -19t82.5 -55l-52 -52q-26 26 -59 40t-69 14t-69 -14t-59 -40zM212 672l-52 50q57 57 129.5 87.5 t152.5 30.5q81 0 154 -30.5t130 -87.5l-52 -50q-46 46 -106 70t-126 24q-65 0 -124.5 -24t-105.5 -70z" />
<glyph unicode="list_alt" d="M320 280q17 0 28.5 11.5t11.5 28.5t-11.5 28.5t-28.5 11.5t-28.5 -11.5t-11.5 -28.5t11.5 -28.5t28.5 -11.5zM320 440q17 0 28.5 11.5t11.5 28.5t-11.5 28.5t-28.5 11.5t-28.5 -11.5t-11.5 -28.5t11.5 -28.5t28.5 -11.5zM320 600q17 0 28.5 11.5t11.5 28.5t-11.5 28.5 t-28.5 11.5t-28.5 -11.5t-11.5 -28.5t11.5 -28.5t28.5 -11.5zM440 280h240v80h-240v-80zM440 440h240v80h-240v-80zM440 600h240v80h-240v-80zM200 120q-33 0 -56.5 23.5t-23.5 56.5v560q0 33 23.5 56.5t56.5 23.5h560q33 0 56.5 -23.5t23.5 -56.5v-560q0 -33 -23.5 -56.5 t-56.5 -23.5h-560zM200 200h560v0v560v0h-560v0v-560v0zM200 760v-560v0v0v560v0z" />
<glyph unicode="domain_disabled" d="M880 194l-80 80v326h-326l-74 74v86h-86l-80 80h246v-160h400v-486zM820 28l-94 92h-646v648l-52 52l56 56l792 -792zM160 200h80v80h-80v-80zM160 360h80v80h-80v-80zM160 520h80v80h-80v-80zM320 200h80v80h-80v-80zM320 360h80v80h-80v-80zM480 200h166l-80 80h-86 v-80zM720 440h-80v80h80v-80z" />
<glyph unicode="gastroenterology" d="M120 80v240q0 50 35 85t85 35h80q50 0 85 35t35 85q0 17 -11.5 28.5t-28.5 11.5q-33 0 -56.5 23.5t-23.5 56.5v200h80v-200v0q50 0 85 -35t35 -85q0 -83 -58.5 -141.5t-141.5 -58.5h-80q-17 0 -28.5 -11.5t-11.5 -28.5v-240h-80zM360 80h-80v80q0 50 35 85t85 35h160 q83 0 141.5 58.5t58.5 141.5v40q0 83 -58.5 141.5t-141.5 58.5q-33 0 -56.5 23.5t-23.5 56.5v80h80v-80v0q117 0 198.5 -81.5t81.5 -198.5v-40q0 -117 -81.5 -198.5t-198.5 -81.5h-160q-17 0 -28.5 -11.5t-11.5 -28.5v-80zM200 80v240q0 17 11.5 28.5t28.5 11.5h80 q83 0 141.5 58.5t58.5 141.5q0 50 -35 85t-85 35v0v200v-200v0q50 0 85 -35t35 -85q0 -83 -58.5 -141.5t-141.5 -58.5h-80q-17 0 -28.5 -11.5t-11.5 -28.5v-240z" />
<glyph unicode="genetics" d="M200 40v40q0 139 58 225.5t160 174.5q-102 88 -160 174.5t-58 225.5v40h80v-40q0 -11 0.5 -20.5t1.5 -19.5h396q1 10 1.5 19.5t0.5 20.5v40h80v-40q0 -139 -58 -225.5t-160 -174.5q102 -88 160 -174.5t58 -225.5v-40h-80v40q0 11 -0.5 20.5t-1.5 19.5h-396 q-1 -10 -1.5 -19.5t-0.5 -20.5v-40h-80zM338 680h284q13 19 22.5 38t17.5 42h-364q8 -22 17.5 -41.5t22.5 -38.5zM480 532q20 17 39 34t36 34h-150q17 -17 36 -34t39 -34zM405 360h150q-17 17 -36 34t-39 34q-20 -17 -39 -34t-36 -34zM298 200h364q-8 22 -17.5 41.5 t-22.5 38.5h-284q-13 -19 -22.5 -38t-17.5 -42z" />
<glyph unicode="gynecology" d="M364 102l-29 58q-9 17 -13 35t-4 37q0 23 6.5 45.5t20.5 42.5q8 11 12 23.5t4 26.5q0 16 -6 30l-12 28q-10 19 -16.5 39t-6.5 41v152q0 25 -17.5 42.5t-42.5 17.5q-21 0 -37 -14t-21 -34q34 -13 56 -43.5t22 -68.5q0 -50 -35 -85t-85 -35t-85 35t-35 85q0 40 23 71t59 43 q5 54 44.5 90t93.5 36q7 0 14 -0.5t14 -2.5q44 23 92.5 33t99.5 10q50 0 98.5 -10t92.5 -33q7 2 14 2.5t14 0.5q55 0 94.5 -36t44.5 -90q36 -12 59 -43t23 -71q0 -50 -35 -85t-85 -35t-85 35t-35 85q0 38 22 68.5t56 43.5q-5 20 -21 34t-38 14q-25 0 -42 -17.5t-17 -42.5 v-152q0 -21 -7 -41t-16 -39q-7 -14 -12.5 -28t-5.5 -30q0 -14 4 -26.5t12 -23.5q13 -20 20 -42.5t7 -45.5q0 -19 -4.5 -37t-12.5 -35l-29 -58l-72 36l29 58q5 8 7 17t2 19q0 12 -4 23t-10 21q-14 20 -21.5 44t-7.5 49q0 23 6.5 43.5t17.5 40.5q6 14 11.5 27.5t5.5 27.5v152 q0 24 7.5 45.5t21.5 39.5q-26 8 -53.5 11.5t-55.5 3.5t-55.5 -3.5t-53.5 -11.5q14 -18 21.5 -39.5t7.5 -45.5v-152q0 -14 5 -28t12 -27q10 -20 17 -40.5t7 -43.5q0 -25 -7.5 -48.5t-21.5 -44.5q-7 -10 -10.5 -21t-3.5 -23q0 -10 2 -19t7 -17l29 -58zM160 520q17 0 28.5 11.5 t11.5 28.5t-11.5 28.5t-28.5 11.5t-28.5 -11.5t-11.5 -28.5t11.5 -28.5t28.5 -11.5zM800 520q17 0 28.5 11.5t11.5 28.5t-11.5 28.5t-28.5 11.5t-28.5 -11.5t-11.5 -28.5t11.5 -28.5t28.5 -11.5zM800 560v0v0v0zM160 560v0v0v0z" />
<glyph unicode="hematology" d="M520 40q-73 0 -116.5 61t-43.5 139t43.5 139t116.5 61t116.5 -61t43.5 -139t-43.5 -139t-116.5 -61zM178 68l-76 24q31 94 44.5 191.5t13.5 196.5t-13.5 196.5t-44.5 191.5l76 24q33 -100 47.5 -203t14.5 -209t-14.5 -209t-47.5 -203zM782 68q-33 100 -47.5 203 t-14.5 209t14.5 209t47.5 203l76 -24q-31 -94 -44.5 -191.5t-13.5 -196.5t13.5 -196.5t44.5 -191.5zM520 120q40 0 60 37.5t20 82.5t-20 82.5t-60 37.5t-60 -37.5t-20 -82.5t20 -82.5t60 -37.5zM489 168q9 -8 21 -8t21 9q14 14 21.5 32.5t7.5 38.5t-7 38.5t-21 32.5 q-8 9 -20.5 9t-21.5 -8t-9.5 -21t7.5 -22l6 -9q6 -8 6 -20t-6 -20l-6 -9q-9 -9 -8.5 -22t9.5 -21zM440 520q-73 0 -116.5 61t-43.5 139t43.5 139t116.5 61t116.5 -61t43.5 -139t-43.5 -139t-116.5 -61zM440 600q40 0 60 37.5t20 82.5t-20 82.5t-60 37.5t-60 -37.5t-20 -82.5 t20 -82.5t60 -37.5zM470 648q9 8 9.5 21t-7.5 22q-5 6 -8.5 13.5t-3.5 15.5t3.5 15.5t8.5 13.5q8 9 8 21.5t-9 21.5q-9 8 -21 8t-21 -9q-14 -14 -21.5 -32.5t-7.5 -38.5t7 -38.5t21 -32.5q9 -9 21 -9t21 8zM440 720v0v0v0zM520 240v0v0v0z" />
<glyph unicode="immunology" d="M521 80q-60 0 -150 16.5t-144 57.5q-30 23 -63 72t-60.5 107t-45.5 116t-18 99q0 85 58 138.5t124 96.5q60 39 133 68t151 29t141.5 -30t126.5 -73q15 -10 39 -30t47.5 -50t41 -70.5t18.5 -92.5q2 -74 -30.5 -154.5t-88 -147t-128.5 -109.5t-152 -43zM520 160 q62 0 120.5 36t103.5 91.5t71.5 121t24.5 123.5q-2 69 -41 113t-70 65q-51 35 -105 62.5t-118 27.5q-66 0 -130 -26t-116 -61q-39 -26 -90 -66.5t-51 -94.5q0 -32 15.5 -82t39 -100t50.5 -92.5t50 -59.5q36 -27 111 -42.5t135 -15.5zM414 240q54 0 89 38t35 86q0 22 -9 43.5 t-29 39.5q-22 20 -36 44t-21 53q-10 44 -43.5 70t-75.5 26q-49 0 -86.5 -37.5t-37.5 -86.5q0 -39 16.5 -87t45.5 -90t68 -70.5t84 -28.5zM414 320q-27 0 -51 22.5t-42.5 53.5t-29.5 64.5t-11 55.5q0 17 13.5 30.5t30.5 13.5q12 0 24.5 -8.5t17.5 -25.5q11 -42 29.5 -75.5 t50.5 -62.5q6 -5 9 -12t3 -14q0 -16 -12 -29t-32 -13zM650 440q17 0 28.5 11.5t11.5 28.5v10l10 -5q15 -8 30.5 -3.5t23.5 18.5q9 14 5 30.5t-19 24.5l-10 5l10 5q15 8 18.5 24t-4.5 31q-8 14 -23.5 18t-30.5 -4l-10 -5v11q0 17 -11.5 28.5t-28.5 11.5t-28.5 -11.5 t-11.5 -28.5v-11l-9 5q-14 8 -30 3.5t-25 -18.5q-8 -14 -4.5 -31t19.5 -24l9 -4l-9 -6q-14 -9 -18.5 -24.5t3.5 -29.5q8 -15 24.5 -19t30.5 4l9 5v-10q0 -17 11.5 -28.5t28.5 -11.5zM482 480v0v0v0v0v0v0v0v0z" />
<glyph unicode="inactive_order" d="M650 160h40v160h-40v-160zM750 160h40v160h-40v-160zM240 600h480v80h-480v-80zM720 40q-83 0 -141.5 58.5t-58.5 141.5t58.5 141.5t141.5 58.5t141.5 -58.5t58.5 -141.5t-58.5 -141.5t-141.5 -58.5zM120 80v680q0 33 23.5 56.5t56.5 23.5h560q33 0 56.5 -23.5 t23.5 -56.5v-267q-19 9 -39 15t-41 9v243v0h-560v0v-562h243q5 -31 15.5 -59t27.5 -53l-6 -6l-60 60l-60 -60l-60 60l-60 -60l-60 60zM240 280h203q3 21 9 41t15 39h-227v-80zM240 440h284q38 37 88.5 58.5t107.5 21.5h-480v-80zM200 198v562v0v0v0v0v-260v-260v-21v-21z " />
<glyph unicode="inpatient" d="M160 80q-33 0 -56.5 23.5t-23.5 56.5v640q0 33 23.5 56.5t56.5 23.5h360q33 0 56.5 -23.5t23.5 -56.5v-640q0 -33 -23.5 -56.5t-56.5 -23.5h-360zM160 539q18 11 38 16t42 5h200q22 0 42 -5t38 -16v261v0h-360v0v-261zM340 600q-33 0 -56.5 23.5t-23.5 56.5t23.5 56.5 t56.5 23.5t56.5 -23.5t23.5 -56.5t-23.5 -56.5t-56.5 -23.5zM780 340l-140 140l140 140l56 -56l-43 -44h127v-80h-127l43 -44zM160 160h360v0v240q0 33 -23.5 56.5t-56.5 23.5h-200q-33 0 -56.5 -23.5t-23.5 -56.5v-240v0zM300 200h80v80h80v80h-80v80h-80v-80h-80v-80h80 v-80zM160 160h24h56h200h56h24v0h-360z" />
<glyph unicode="lab_panel" d="M120 120q-33 0 -56.5 23.5t-23.5 56.5v200q0 33 23.5 56.5t56.5 23.5v171q-18 11 -29 28.5t-11 40.5v40q0 33 23.5 56.5t56.5 23.5h200q33 0 56.5 -23.5t23.5 -56.5v-40q0 -23 -11 -40.5t-29 -28.5v-171h160v171q-18 11 -29 28.5t-11 40.5v40q0 33 23.5 56.5t56.5 23.5 h200q33 0 56.5 -23.5t23.5 -56.5v-40q0 -23 -11 -40.5t-29 -28.5v-171q33 0 56.5 -23.5t23.5 -56.5v-200q0 -33 -23.5 -56.5t-56.5 -23.5h-720zM600 720h200v40h-200v-40zM160 720h200v40h-200v-40zM640 480h120v160h-120v-160zM200 480h120v160h-120v-160zM120 200h720v0 v200v0h-720v0v-200v0zM160 720v40v-40zM600 720v40v-40zM120 200v200v0v0v-200v0z" />
<glyph unicode="lab_profile" d="M320 480v80h320v-80h-320zM320 640v80h320v-80h-320zM240 400h300q29 0 54 -12.5t42 -35.5l84 -110v558v0h-480v0v-400zM240 160h442l-109 143q-6 8 -14.5 12.5t-18.5 4.5h-300v-160v0zM720 80h-480q-33 0 -56.5 23.5t-23.5 56.5v640q0 33 23.5 56.5t56.5 23.5h480 q33 0 56.5 -23.5t23.5 -56.5v-640q0 -33 -23.5 -56.5t-56.5 -23.5zM240 160v640v0v0v-640v0zM240 320v80v-80z" />
<glyph unicode="labs" d="M480 80q-83 0 -141.5 58.5t-58.5 141.5v360q-33 0 -56.5 23.5t-23.5 56.5v80q0 33 23.5 56.5t56.5 23.5h400q33 0 56.5 -23.5t23.5 -56.5v-80q0 -33 -23.5 -56.5t-56.5 -23.5v-360q0 -83 -58.5 -141.5t-141.5 -58.5zM280 720h400v0v80v0h-400v0v-80v0zM480 160 q39 0 70 22.5t43 57.5h-113v80h120v40h-120v80h120v40h-120v80h120v80h-240v-360q0 -50 35 -85t85 -35zM280 720v80v0v0v-80v0z" />
<glyph unicode="lda" d="M440 80v137l-240 101v202h240v120h-40q-33 0 -56.5 23.5t-23.5 56.5v80q0 33 23.5 56.5t56.5 23.5h160q33 0 56.5 -23.5t23.5 -56.5v-80q0 -33 -23.5 -56.5t-56.5 -23.5h-40v-120h240v-202l-240 -101v-137h-80zM400 720h160v80h-160v-80zM440 304v136h-160v-69zM520 304 l160 67v69h-160v-136zM400 720v80v-80z" />
<glyph unicode="metabolism" d="M390 240v140h-60v144q0 23 31.5 39.5t78.5 16.5t78.5 -16.5t31.5 -39.5v-144h-60v-140h-100zM440 600q-26 0 -43 17t-17 43t17 43t43 17t43 -17t17 -43t-17 -43t-43 -17zM440 120q-150 0 -255 105t-105 255q0 75 28.5 140.5t77 114t114 77t140.5 28.5t140.5 -28.5 t114 -77t77 -114t28.5 -140.5v-8l73 74l57 -56l-170 -170l-170 170l57 56l73 -73v7q0 116 -82 198t-198 82t-198 -82t-82 -198q1 -116 82.5 -198t197.5 -82q57 0 107 21.5t88 58.5l57 -57q-49 -48 -113.5 -75.5t-138.5 -27.5z" />
<glyph unicode="microbiology" d="M600 80q-17 0 -28.5 11.5t-11.5 28.5v43q-23 4 -43.5 11.5t-38.5 20.5l-40 -40q-12 -11 -28.5 -11.5t-28.5 11.5t-12 28.5t12 28.5l41 41q-3 5 -6 10.5t-6 10.5l-27 53v0l-49 -49q-12 -11 -28 -11.5t-28 11.5t-12 28t12 28l49 50v0l-53 26q-5 2 -9 4.5t-9 5.5l-36 -36 q-12 -11 -28.5 -11.5t-28.5 11.5t-12 28t12 28l35 35q-14 19 -22.5 40.5t-12.5 44.5h-43q-17 0 -28.5 11.5t-11.5 28.5t11.5 28.5t28.5 11.5h45q5 19 12 36t18 33l-35 35q-12 12 -12 28t12 28t28 12t28 -12l35 -35q16 11 33 18t36 12v45q0 17 11.5 28.5t28.5 11.5 t28.5 -11.5t11.5 -28.5v-43q24 -4 45.5 -13t40.5 -23l35 35q12 12 28.5 12t28.5 -12t12 -28t-12 -28l-37 -37q2 -4 4.5 -8t4.5 -9l25 -50v0l46 46q12 12 28.5 12t28.5 -12t12 -28.5t-12 -28.5l-48 -47v0l56 -28q6 -3 12.5 -6.5t11.5 -7.5l40 40q12 12 28 12t28 -12t12 -28.5 t-12 -28.5l-40 -39q12 -18 19.5 -38t11.5 -42h43q17 0 28.5 -11.5t11.5 -28.5t-11.5 -28.5t-28.5 -11.5h-45q-5 -19 -12 -35.5t-18 -32.5l34 -34q12 -12 12 -28.5t-12 -28.5q-12 -11 -28.5 -11.5t-28.5 11.5l-33 34q-16 -11 -33 -18t-36 -12v-45q0 -17 -11.5 -28.5 t-28.5 -11.5zM594 240q58 0 95.5 44t28.5 102q-5 30 -22.5 54t-45.5 38l-66 34q-23 12 -41.5 30.5t-30.5 41.5l-34 66q-16 32 -46 51t-66 19q-58 0 -95.5 -44t-28.5 -102q5 -30 22.5 -54t45.5 -38l66 -34q23 -12 41.5 -30.5t30.5 -41.5l34 -66q16 -32 46 -51t66 -19z M380 540q25 0 42.5 17.5t17.5 42.5t-17.5 42.5t-42.5 17.5t-42.5 -17.5t-17.5 -42.5t17.5 -42.5t42.5 -17.5zM580 290q21 0 35.5 14.5t14.5 35.5t-14.5 35.5t-35.5 14.5t-35.5 -14.5t-14.5 -35.5t14.5 -35.5t35.5 -14.5zM480 480v0v0v0v0v0v0v0v0v0z" />
<glyph unicode="nephrology" d="M360 120v167q-10 -4 -19.5 -5.5t-20.5 -1.5q-100 0 -170 70t-70 170v80q0 100 70 170t170 70q50 0 85 -35t35 -85t-35 -85t-85 -35h-80v80h80q17 0 28.5 11.5t11.5 28.5t-11.5 28.5t-28.5 11.5q-66 0 -113 -47t-47 -113v-80q0 -66 47 -113t113 -47q17 0 28.5 11.5 t11.5 28.5t-11.5 28.5t-28.5 11.5h-80v80h80q50 0 85 -35t35 -85v-280h-80zM520 120v280q0 50 35 85t85 35h80v-80h-80q-17 0 -28.5 -11.5t-11.5 -28.5t11.5 -28.5t28.5 -11.5q66 0 113 47t47 113v80q0 66 -47 113t-113 47q-17 0 -28.5 -11.5t-11.5 -28.5t11.5 -28.5 t28.5 -11.5h80v-80h-80q-50 0 -85 35t-35 85t35 85t85 35q100 0 170 -70t70 -170v-80q0 -100 -70 -170t-170 -70q-11 0 -20.5 1.5t-19.5 5.5v-167h-80zM160 520v0v0v0v80v0v0v0v0v-80zM800 600v0v0v0v-80v0v0v0v0v80z" />
<glyph unicode="neurology" d="M390 120q-51 0 -88 35.5t-42 85.5q-60 8 -100 53t-40 106q0 21 5.5 41.5t16.5 38.5q-11 18 -16.5 38t-5.5 42q0 61 40 105.5t99 52.5v0q3 51 41 86.5t90 35.5q26 0 48.5 -10t41.5 -27q18 17 41 27t49 10q52 0 89.5 -35t40.5 -86v0q59 -8 99.5 -53t40.5 -106 q0 -22 -5.5 -42t-16.5 -38q11 -18 16.5 -38.5t5.5 -41.5q0 -62 -40.5 -106.5t-100.5 -52.5q-5 -50 -41.5 -85.5t-87.5 -35.5q-25 0 -48.5 9.5t-41.5 26.5q-19 -17 -42 -26.5t-48 -9.5zM520 710v-460q0 -21 14.5 -35.5t35.5 -14.5q20 0 34.5 16t15.5 36q-21 8 -38.5 21.5 t-31.5 32.5q-10 14 -7.5 30t16.5 26t30 7.5t26 -16.5q11 -16 28 -24.5t37 -8.5q33 0 56.5 23.5t23.5 56.5q0 5 -0.5 10t-2.5 10q-17 -10 -36.5 -15t-40.5 -5q-17 0 -28.5 11.5t-11.5 28.5t11.5 28.5t28.5 11.5q33 0 56.5 23.5t23.5 56.5t-23.5 56t-56.5 24 q-11 -18 -28.5 -31.5t-38.5 -21.5q-16 -6 -31 1t-20 23t1.5 31t22.5 20q15 5 24.5 18t9.5 30q0 21 -14.5 35.5t-35.5 14.5t-35.5 -14.5t-14.5 -35.5zM440 250v460q0 21 -14.5 35.5t-35.5 14.5t-35.5 -14.5t-14.5 -35.5q0 -16 9 -29.5t24 -18.5q16 -5 23 -20t2 -31 q-6 -16 -21 -23t-31 -1q-21 8 -38.5 21.5t-28.5 31.5q-32 -1 -55.5 -24.5t-23.5 -55.5q0 -33 23.5 -56.5t56.5 -23.5q17 0 28.5 -11.5t11.5 -28.5t-11.5 -28.5t-28.5 -11.5q-21 0 -40.5 5t-36.5 15q-2 -5 -2.5 -10t-0.5 -10q0 -33 23.5 -56.5t56.5 -23.5q20 0 37 8.5 t28 24.5q10 14 26 16.5t30 -7.5t16.5 -26t-7.5 -30q-14 -19 -32 -33t-39 -22q1 -20 16 -35.5t35 -15.5q21 0 35.5 14.5t14.5 35.5zM480 480v0v0v0v0v0v0v0v0v0v0v0v0v0v0v0v0v0v0v0v0v0v0v0v0v0v0v0v0v0v0v0v0v0v0v0v0v0v0v0v0v0v0v0z" />
<glyph unicode="nutrition" d="M480 120q-117 0 -198.5 81.5t-81.5 198.5q0 94 55.5 168.5t145.5 100.5q-20 5 -39 14.5t-34 24.5q-33 33 -42.5 78.5t-4.5 92.5q47 5 92.5 -4.5t78.5 -42.5q23 -23 33.5 -52t13.5 -61q13 31 31.5 58.5t41.5 50.5q11 11 28 11t28 -11t11 -28t-11 -28q-22 -22 -39 -48.5 t-25 -56.5q88 -28 142 -101.5t54 -165.5q0 -117 -81.5 -198.5t-198.5 -81.5zM480 200q83 0 141.5 58.5t58.5 141.5t-58.5 141.5t-141.5 58.5t-141.5 -58.5t-58.5 -141.5t58.5 -141.5t141.5 -58.5zM480 400v0v0v0z" />
<glyph unicode="oncology" d="M120 80v240q0 50 35 85t85 35h80q50 0 85 35t35 85q0 17 -11.5 28.5t-28.5 11.5q-33 0 -56.5 23.5t-23.5 56.5v200h80v-200v0q50 0 85 -35t35 -85q0 -83 -58.5 -141.5t-141.5 -58.5h-80q-17 0 -28.5 -11.5t-11.5 -28.5v-240h-80zM400 680v200v-200v0q50 0 85 -35t35 -85 v0v0q0 -83 -58.5 -141.5t-141.5 -58.5h-80q-17 0 -28.5 -11.5t-11.5 -28.5v-240v240q0 17 11.5 28.5t28.5 11.5h80q83 0 141.5 58.5t58.5 141.5q0 50 -35 85t-85 35v0zM840 459q-17 16 -37 27.5t-43 19.5v14q0 83 -58.5 141.5t-141.5 58.5q-33 0 -56.5 23.5t-23.5 56.5v80 h80v-80q117 0 198.5 -81.5t81.5 -198.5v-61zM280 80v80q0 50 35 85t85 35h40q0 -21 3.5 -41t10.5 -39h-54q-17 0 -28.5 -11.5t-11.5 -28.5v-80h-80zM680 200q33 0 56.5 23.5t23.5 56.5t-23.5 56.5t-56.5 23.5t-56.5 -23.5t-23.5 -56.5t23.5 -56.5t56.5 -23.5zM863 40 l-102 102q-18 -11 -38 -16.5t-43 -5.5q-66 0 -113 47t-47 113t47 113t113 47t113 -47t47 -113q0 -23 -6 -43.5t-17 -38.5l102 -102z" />
<glyph unicode="ophthalmology" d="M120 520v80h63q29 69 84.5 118.5t127.5 69.5l-23 24l56 56l50 -49q12 -12 15.5 -28.5t-1.5 -32.5q-5 -17 -18 -28t-30 -13q-69 -11 -121.5 -56.5t-72.5 -112.5l-8 -28h-122zM600 480q0 44 16.5 84t53.5 62q-23 30 -53.5 51.5t-67.5 32.5l23 77q62 -18 110 -59t78 -98 q42 -20 61 -61.5t19 -88.5t-19 -89t-61 -61q-30 -57 -79 -98t-110 -59l-23 77q36 11 67.5 32.5t54.5 51.5q-37 22 -53.5 62t-16.5 84zM720 400q15 0 27.5 24.5t12.5 55.5t-12.5 55.5t-27.5 24.5t-27.5 -24.5t-12.5 -55.5t12.5 -55.5t27.5 -24.5zM423 87l-56 57l28 28 q-72 20 -128 69.5t-84 118.5h-63v80h122l8 -28q20 -67 72.5 -112.5t121.5 -56.5q17 -2 30 -13.5t18 -27.5t1.5 -32t-15.5 -28zM720 480v0v0v0z" />
<glyph unicode="oral_disease" d="M200 80v360h80v184l-136 136l160 160l56 -56l-104 -104l104 -104v-216h80v-360h-240zM520 80v360h80v125q-52 14 -86 56t-34 99q0 66 47 113t113 47t113 -47t47 -113q0 -57 -34 -99t-86 -56v-125h80v-360h-240zM640 640q33 0 56.5 23.5t23.5 56.5t-23.5 56.5t-56.5 23.5 t-56.5 -23.5t-23.5 -56.5t23.5 -56.5t56.5 -23.5zM280 160h80v200h-80v-200zM600 160h80v200h-80v-200zM280 160h80h-80zM600 160h80h-80z" />
<glyph unicode="outpatient" d="M40 120v720h560v-720h-240v160h-80v-160h-240zM120 200h80v160h240v-160h80v560h-400v-560zM200 440h80v80h-80v-80zM200 600h80v80h-80v-80zM360 440h80v80h-80v-80zM360 600h80v80h-80v-80zM780 340l-56 56l43 44h-127v80h127l-43 44l56 56l140 -140zM200 200v160h240 v-160v160h-240v-160z" />
<glyph unicode="outpatient_med" d="M780 340l-57 56l44 44h-127v80h126l-43 43l57 57l140 -140zM80 760v80h480v-80h-480zM260 260h120v100h100v120h-100v100h-120v-100h-100v-120h100v-100zM120 120q-33 0 -56.5 23.5t-23.5 56.5v440q0 33 23.5 56.5t56.5 23.5h400q33 0 56.5 -23.5t23.5 -56.5v-440 q0 -33 -23.5 -56.5t-56.5 -23.5h-400zM120 200h400v0v440v0h-400v0v-440v0zM320 420v0v0v0v0v0z" />
<glyph unicode="pediatrics" d="M320 680q-17 0 -28.5 11.5t-11.5 28.5t11.5 28.5t28.5 11.5h120v80q0 17 11.5 28.5t28.5 11.5t28.5 -11.5t11.5 -28.5v-80h120q17 0 28.5 -11.5t11.5 -28.5t-11.5 -28.5t-28.5 -11.5h-320zM360 80q-33 0 -56.5 23.5t-23.5 56.5v360q0 50 35 85t85 35h160q50 0 85 -35 t35 -85v-360q0 -33 -23.5 -56.5t-56.5 -23.5h-240zM360 160h240v0v360q0 17 -11.5 28.5t-28.5 11.5h-160q-17 0 -28.5 -11.5t-11.5 -28.5v-40h80q17 0 28.5 -11.5t11.5 -28.5t-11.5 -28.5t-28.5 -11.5h-80v-80h80q17 0 28.5 -11.5t11.5 -28.5t-11.5 -28.5t-28.5 -11.5h-80 v-80zM360 160v360v28v12v-12v-28v-40v-80v-80v-80v-80z" />
<glyph unicode="physical_therapy" d="M481 276v0v0v0zM120 160v160q0 83 58.5 141.5t141.5 58.5h429q38 0 64.5 -26t26.5 -64q0 -31 -19 -55.5t-48 -32.5l-93 -27v-155q0 -21 -9.5 -38t-25.5 -28t-35 -13.5t-39 5.5l-189 74v0h-262zM600 280h-225q-7 0 -10.5 -4t-4.5 -9t1.5 -9.5t8.5 -6.5l230 -91v0v120z M200 240h84q-2 6 -3 12t-1 13q0 39 28 67t67 28h163l214 59q5 2 7 5t1 7t-3.5 6.5t-7.5 2.5h-429q-50 0 -85 -35t-35 -85v-80zM400 560q-66 0 -113 47t-47 113t47 113t113 47t113 -47t47 -113t-47 -113t-113 -47zM400 640q33 0 56.5 23.5t23.5 56.5t-23.5 56.5t-56.5 23.5 t-56.5 -23.5t-23.5 -56.5t23.5 -56.5t56.5 -23.5zM481 276v0v0v0v0v0zM400 720v0v0v0z" />
<glyph unicode="pill" d="M345 120q-94 0 -159.5 65.5t-65.5 159.5q0 45 17 86t49 73l270 270q32 32 73 49t86 17q94 0 159.5 -65.5t65.5 -159.5q0 -45 -17 -86t-49 -73l-270 -270q-32 -32 -73 -49t-86 -17zM611 406l107 106q20 20 31 47t11 56q0 60 -42.5 102.5t-102.5 42.5q-29 0 -56 -11 t-47 -31l-106 -107zM345 200q29 0 56 11t47 31l106 107l-205 205l-107 -106q-20 -20 -31 -47t-11 -56q0 -60 42.5 -102.5t102.5 -42.5z" />
<glyph unicode="podiatry" d="M684 389l179 179l57 -57l-180 -179zM40 160v106q0 24 13.5 44t36.5 29q21 8 40 19t38 25l58 -58q5 -7 13.5 -6.5t14.5 6.5q5 5 5 13.5t-5 15.5l-55 55l15 15q8 8 16 17l54 -55q5 -7 13.5 -7t15.5 7q5 5 5 13.5t-5 15.5l-55 54q5 10 10.5 20.5t9.5 22.5l65 -65 q5 -7 13.5 -7t15.5 7q5 5 5 13t-5 15l-77 77l41 114l216 214l282 -283l-414 -437h-380zM385 240v0v0l337 355v0v0v0zM120 240h265l337 355l-171 171l-146 -145l-29 -81l30 -30q23 -24 23 -57.5t-23 -56.5l-113 -113q-24 -24 -57 -24t-56 24l-8 8q-13 -8 -26 -14t-26 -11v-26 z" />
<glyph unicode="prescriptions" d="M678 134l46 46l-64 64l-46 -46q-14 -14 -14 -32t14 -32t32 -14t32 14zM780 236l46 46q14 14 14 32t-14 32t-32 14t-32 -14l-46 -46zM735 77q-37 -37 -89 -37t-89 37t-37 89t37 89l148 148q37 37 89 37t89 -37t37 -89t-37 -89zM200 200v56v55v149v28v29v243v0v0v-560v0z M200 120q-33 0 -56.5 23.5t-23.5 56.5v560q0 33 23.5 56.5t56.5 23.5h168q13 36 43.5 58t68.5 22t68.5 -22t43.5 -58h168q33 0 56.5 -23.5t23.5 -56.5v-245q-20 5 -40 5t-40 -3v243v0h-560v0v-560v0h243q-3 -20 -3 -40t5 -40h-245zM480 790q13 0 21.5 8.5t8.5 21.5 t-8.5 21.5t-21.5 8.5t-21.5 -8.5t-8.5 -21.5t8.5 -21.5t21.5 -8.5zM280 600v80h400v-80h-400zM280 440v80h400v-34q-8 -5 -15.5 -11.5t-15.5 -14.5l-20 -20h-349zM280 280v80h269l-49 -49q-8 -8 -14.5 -15.5t-11.5 -15.5h-194z" />
<glyph unicode="problem" d="M280 320q17 0 28.5 11.5t11.5 28.5t-11.5 28.5t-28.5 11.5t-28.5 -11.5t-11.5 -28.5t11.5 -28.5t28.5 -11.5zM240 440h80v200h-80v-200zM400 360h320v80h-320v-80zM400 520h320v80h-320v-80zM160 160q-33 0 -56.5 23.5t-23.5 56.5v480q0 33 23.5 56.5t56.5 23.5h640 q33 0 56.5 -23.5t23.5 -56.5v-480q0 -33 -23.5 -56.5t-56.5 -23.5h-640zM160 240h640v0v480v0h-640v0v-480v0zM160 240v480v0v0v-480v0z" />
<glyph unicode="psychiatry" d="M440 120v319q-64 0 -123 24.5t-104 69.5t-69 104t-24 123v80h80q63 0 122 -24.5t104 -69.5q31 -31 51.5 -68t31.5 -79q5 7 11 13.5t13 13.5q45 45 104 69.5t123 24.5h80v-80q0 -64 -24.5 -123t-69.5 -104t-103.5 -69t-122.5 -24v-200h-80zM440 520q0 48 -18.5 91.5 t-52.5 77.5t-77.5 52.5t-91.5 18.5q0 -48 18 -92t52 -78t78 -52t92 -18zM520 400q48 0 91.5 18t77.5 52t52.5 78t18.5 92q-48 0 -92 -18.5t-78 -52.5t-52 -77.5t-18 -91.5zM520 400v0v0v0zM440 520v0v0v0z" />
<glyph unicode="pulmonology" d="M200 120q-51 0 -85.5 34.5t-34.5 85.5v167l105 281q12 33 42 52.5t65 19.5q45 0 76.5 -32.5t31.5 -78.5v-49h-80v49q0 13 -9 22t-21 9q-10 0 -18.5 -5.5t-11.5 -14.5l-100 -268v-152q0 -17 11.5 -28.5t28.5 -11.5h120q17 0 28.5 11.5t11.5 28.5v80h80v-80 q0 -51 -35 -85.5t-85 -34.5h-120zM759 120h-120q-50 0 -85 34.5t-35 85.5v80h80v-80q0 -17 11.5 -28.5t28.5 -11.5h120q17 0 28.5 11.5t11.5 28.5v152l-100 268q-4 9 -12 14.5t-18 5.5q-13 0 -21.5 -9t-8.5 -22v-49h-80v49q0 46 31.5 78.5t76.5 32.5q35 0 64.5 -19.5 t42.5 -52.5l105 -281v-167q0 -51 -35 -85.5t-85 -34.5zM320 456v0v0v0v0v0v0v0v0zM639 456v0v0v0v0v0v0v0v0zM480 503l-104 -103l-56 56l120 120v304h80v-304l120 -120l-57 -56z" />
<glyph unicode="radiology" d="M200 80q-33 0 -56.5 23.5t-23.5 56.5v560q0 33 23.5 56.5t56.5 23.5h40v80h80v-80h320v80h80v-80h40q33 0 56.5 -23.5t23.5 -56.5v-560q0 -33 -23.5 -56.5t-56.5 -23.5h-560zM200 160h560v0v560v0h-560v0v-560zM360 160v72l-72 84q-11 11 -19.5 30t-8.5 44q0 13 2.5 25.5 t8.5 24.5q-5 11 -8 23.5t-3 26.5q0 25 8.5 44t19.5 30l72 84v72h60v-83q0 -5 -7 -19l-80 -94q-7 -8 -10 -16.5t-3 -17.5q0 -20 13 -34.5t33 -14.5q9 0 17 3t14 10q17 17 38.5 26t44.5 9t44.5 -9t38.5 -26q7 -7 15 -10t16 -3q20 0 33 14.5t13 33.5q0 9 -3.5 17.5t-9.5 16.5 l-80 95q-4 4 -5.5 9t-1.5 10v83h60v-72l73 -86q14 -16 20.5 -34.5t6.5 -38.5q0 -13 -3.5 -25.5t-8.5 -23.5q6 -12 9 -24.5t3 -25.5q0 -25 -8.5 -44t-19.5 -30l-72 -84v-72h-60v83q0 6 7 19l80 94q7 8 10 17t3 18q-11 -5 -22 -7.5t-23 -2.5q-20 0 -40 8t-35 24q-7 8 -17.5 12 t-22.5 4q-11 0 -21.5 -4t-18.5 -12q-15 -16 -34.5 -24t-39.5 -8q-12 0 -23.5 2.5t-22.5 7.5q0 -9 3 -18t10 -17l80 -94q3 -5 5 -9.5t2 -9.5v-83h-60zM200 160v0v560v0v0v-560z" />
<glyph unicode="respiratory_rate" d="M574 256l66 67v37v-37zM786 256l-66 67v37v-37zM480 480v0v0v0v0v0v0v0v0zM80 600v120q0 33 23.5 56.5t56.5 23.5h640q33 0 56.5 -23.5t23.5 -56.5v-220h-80v220v0h-640v0v-120h-80zM160 160q-33 0 -56.5 23.5t-23.5 56.5v120h80v-120v0h220v-80h-220zM280 280 q-11 0 -21 5.5t-15 16.5l-69 138h-95v80h120q11 0 21 -5.5t15 -16.5l44 -88l124 248q5 10 15 15t21 5t21 -5t15 -15l79 -159q-21 -2 -39.5 -9t-34.5 -20l-41 80l-124 -248q-5 -11 -15 -16.5t-21 -5.5zM500 40q-25 0 -42.5 17.5t-17.5 42.5v147l53 141q9 23 29.5 37.5 t45.5 14.5h72v80h80v-80h72q25 0 45.5 -14.5t29.5 -37.5l53 -141v-147q0 -25 -17.5 -42.5t-42.5 -17.5h-80q-25 0 -42.5 17.5t-17.5 42.5v60h80v-40h40v113l-48 127h-72v-37l66 -67l-56 -56l-50 50l-50 -50l-56 56l66 67v37h-72l-48 -127v-113h40v40h80v-60 q0 -25 -17.5 -42.5t-42.5 -17.5h-80zM680 240v0v0v0v0v0v0v0v0v0v0v0z" />
<glyph unicode="rheumatology" d="M411 338v0v0v0v0v0v0v0v0v0zM748 322q-15 5 -23 20t-3 30q6 17 20.5 24.5t30.5 1.5l120 -40q16 -5 23.5 -19.5t1.5 -31.5q-5 -15 -19.5 -22.5t-30.5 -2.5zM760 440q-17 0 -28.5 11.5t-11.5 28.5t11.5 28.5t28.5 11.5h120q17 0 28.5 -11.5t11.5 -28.5t-11.5 -28.5 t-28.5 -11.5h-120zM773 562q-16 -5 -31 2t-20 23q-5 17 2.5 31.5t23.5 19.5l120 40q16 5 30.5 -2.5t19.5 -23.5q5 -15 -2 -30t-23 -20zM285 400q-52 0 -88.5 36.5t-36.5 88.5q0 26 10 48.5t27 39.5l83 84v183h80v-200q0 -8 -3.5 -15.5t-8.5 -13.5l-95 -95q-6 -6 -9.5 -14 t-3.5 -17q0 -18 13.5 -31.5t31.5 -13.5q12 0 19 4t19 14q22 18 43.5 27t43.5 9t43.5 -9t43.5 -27q12 -10 19 -14t19 -4q19 0 32 13.5t13 31.5q0 9 -3.5 17.5t-9.5 14.5l-95 95q-5 6 -8.5 13t-3.5 15v200h80v-182l84 -84q17 -17 26.5 -40t9.5 -49q0 -52 -36 -88.5t-89 -36.5 q-33 0 -53.5 12.5t-34.5 24.5q-15 12 -23.5 14.5t-13.5 2.5q-9 0 -18.5 -6t-17.5 -11q-14 -12 -34.5 -24.5t-54.5 -12.5zM460 80v190q0 8 3.5 15.5t8.5 13.5l95 95q6 6 9.5 14t3.5 17q0 10 -3.5 18t-9.5 14l57 57q17 -17 26.5 -40t9.5 -49t-9.5 -48t-26.5 -39l-84 -84v-174 h-80zM280 80v174l-83 84q-17 17 -27 39t-10 48t10 49t27 40l57 -57q-7 -6 -10.5 -14t-3.5 -18q0 -9 3.5 -17t9.5 -14l95 -95q5 -6 8.5 -13.5t3.5 -15.5v-190h-80zM410 652v0v0v0v0v0v0v0v0v0v0v0z" />
<glyph unicode="source_notes" d="M200 200v560v0v0v-560v0v0v0zM280 600h400v80h-400v-80zM280 440h190q20 24 43.5 44.5t51.5 35.5h-285v-80zM280 280h122q2 21 7.5 41t13.5 39h-143v-80zM200 120q-33 0 -56.5 23.5t-23.5 56.5v560q0 33 23.5 56.5t56.5 23.5h560q33 0 56.5 -23.5t23.5 -56.5v-223 q-19 8 -39 13.5t-41 7.5v202v0h-560v0v-560v0h202q2 -21 7.5 -41t13.5 -39h-223zM720 40q-73 0 -127.5 45.5t-68.5 114.5h62q13 -44 49.5 -72t84.5 -28q58 0 99 41t41 99t-41 99t-99 41q-29 0 -54 -10.5t-44 -29.5h58v-60h-160v160h60v-57q27 26 63 41.5t77 15.5 q83 0 141.5 -58.5t58.5 -141.5t-58.5 -141.5t-141.5 -58.5z" />
<glyph unicode="surgical" d="M496 346l-150 150l332 332q12 12 28.5 12t28.5 -12l93 -93q12 -12 12 -28.5t-12 -28.5zM496 460l248 247l-37 37l-247 -248zM440 120l80 80h360v-80h-440zM203 120q-46 0 -88.5 18t-74.5 50l265 264l104 -104q14 -14 22 -32t8 -38t-8 -38.5t-22 -32.5l-19 -19 q-32 -32 -74.5 -50t-88.5 -18h-24zM203 200h24q30 0 58 11.5t49 32.5l19 19q6 6 6 14t-6 14l-48 48l-136 -135q8 -2 17 -3t17 -1zM744 707l-37 37zM305 339v0v0v0v0z" />
<glyph unicode="symptoms" d="M479 500v0v0v0v0v0v0zM480 200q-146 0 -266 81.5t-174 218.5q54 137 174 218.5t266 81.5t266 -81.5t174 -218.5q-6 -15 -12.5 -29t-14.5 -27l-63 59v0q-51 100 -144.5 158.5t-205.5 58.5q-113 0 -207.5 -59.5t-144.5 -160.5q50 -101 144.5 -160.5t207.5 -59.5 q11 0 21.5 0.5t21.5 2.5q-4 -20 -4 -41t4 -41q-11 -1 -21 -1h-22zM480 320q-75 0 -127.5 52.5t-52.5 127.5t52.5 127.5t127.5 52.5t127.5 -52.5t52.5 -127.5q0 -7 -0.5 -13.5t-1.5 -13.5l-62 -57q-19 -19 -34 -40.5t-25 -45.5q-14 -5 -28 -7.5t-29 -2.5zM480 392 q45 0 76.5 31.5t31.5 76.5t-31.5 76.5t-76.5 31.5t-76.5 -31.5t-31.5 -76.5t31.5 -76.5t76.5 -31.5zM760 80q-67 0 -113.5 47t-47.5 114q0 33 14 63t38 53l109 103l108 -103q24 -23 37.5 -52.5t14.5 -62.5q0 -68 -47 -115t-113 -47zM760 160q33 0 56.5 24t22.5 58 q0 17 -7.5 32t-19.5 26l-52 50l-53 -50q-12 -11 -20 -26.5t-7 -32.5q0 -34 23 -57.5t57 -23.5zM760 255v0v0v0v0z" />
<glyph unicode="syringe" d="M156 513q-11 12 -11 28.5t11 28.5l112 112l-43 43l-12 -12q-12 -12 -28.5 -12t-28.5 12q-11 11 -11 28t11 28l80 80q12 12 28.5 12t28.5 -12q11 -11 11 -28t-11 -28l-12 -12l43 -43l112 112q12 12 28.5 12t28.5 -12t12 -28.5t-12 -28.5l-27 -26l295 -295q23 -23 23 -56.5 t-23 -56.5l-28 -29l189 -188h-114l-132 132l-28 -29q-23 -23 -56.5 -23t-56.5 23l-295 295l-27 -27q-12 -11 -28.5 -11t-28.5 11zM296 596l295 -295v0l113 114v0l-60 61l-56 -56q-12 -11 -28.5 -11.5t-27.5 10.5q-12 12 -12 28.5t12 28.5l56 56l-60 60l-56 -56 q-12 -11 -28.5 -11t-28.5 11q-11 12 -11 28.5t11 28.5l56 56l-61 61zM296 596l114 114v0v0v0v0v0z" />
<glyph unicode="urology" d="M360 40v81q-25 5 -43 22.5t-23 43.5l-13 80q-6 37 18 65t61 28v47q-10 -4 -19.5 -5.5t-20.5 -1.5q-100 0 -170 70t-70 170v40q0 100 70 170t170 70q50 0 85 -35t35 -85t-35 -85t-85 -35h-80v80h80q17 0 28.5 11.5t11.5 28.5t-11.5 28.5t-28.5 11.5q-66 0 -113 -47 t-47 -113v-40q0 -66 47 -113t113 -47q17 0 28.5 11.5t11.5 28.5t-11.5 28.5t-28.5 11.5h-80v80h80q50 0 85 -35t35 -85v-160h80v160q0 50 35 85t85 35h80v-80h-80q-17 0 -28.5 -11.5t-11.5 -28.5t11.5 -28.5t28.5 -11.5q66 0 113 47t47 113v40q0 66 -47 113t-113 47 q-17 0 -28.5 -11.5t-11.5 -28.5t11.5 -28.5t28.5 -11.5h80v-80h-80q-50 0 -85 35t-35 85t35 85t85 35q100 0 170 -70t70 -170v-40q0 -100 -70 -170t-170 -70q-11 0 -20.5 1.5t-19.5 5.5v-47q37 0 61 -28t18 -65l-13 -80q-5 -26 -23 -43.5t-43 -22.5v-81h-80v80h-80v-80h-80z M360 280l13 -80v0h214v0l13 80v0h-240v0zM360 280v0l13 -80v0v0z" />
<glyph unicode="vaccines" d="M320 60l-80 60v160h-40q-33 0 -56.5 23.5t-23.5 56.5v300q-17 0 -28.5 11.5t-11.5 28.5t11.5 28.5t28.5 11.5h120v60h-20q-17 0 -28.5 11.5t-11.5 28.5t11.5 28.5t28.5 11.5h120q17 0 28.5 -11.5t11.5 -28.5t-11.5 -28.5t-28.5 -11.5h-20v-60h120q17 0 28.5 -11.5 t11.5 -28.5t-11.5 -28.5t-28.5 -11.5v-300q0 -33 -23.5 -56.5t-56.5 -23.5h-40v-220zM200 360h160v60h-70q-12 0 -21 9t-9 21t9 21t21 9h70v60h-70q-12 0 -21 9t-9 21t9 21t21 9h70v60h-160v-300zM600 80q-33 0 -56.5 23.5t-23.5 56.5v260q0 29 10 48t21 33t20 22.5t9 16.5 v20q-17 0 -28.5 11.5t-11.5 28.5t11.5 28.5t28.5 11.5h200q17 0 28.5 -11.5t11.5 -28.5t-11.5 -28.5t-28.5 -11.5v-20q0 -8 10 -18t22 -24q11 -14 19.5 -33t8.5 -45v-260q0 -33 -23.5 -56.5t-56.5 -23.5h-160zM600 400h160v20q0 15 -9 26t-20 24t-21 29t-10 41v20h-40v-20 q0 -24 -9.5 -40t-20.5 -29t-20.5 -24.5t-9.5 -26.5v-20zM600 280h160v60h-160v-60zM600 160h160v60h-160v-60zM600 280h160h-160z" />
<glyph unicode="ventilator" d="M520 680h160v0v80v0h-160v0v-80v0zM160 280q17 0 28.5 11.5t11.5 28.5t-11.5 28.5t-28.5 11.5t-28.5 -11.5t-11.5 -28.5t11.5 -28.5t28.5 -11.5zM480 120q-76 0 -144 24t-125 67q-11 -5 -24 -8t-27 -3q-50 0 -85 35t-35 85q0 23 8 43t22 36q-11 28 -18 57t-10 60l80 8 q2 -23 6.5 -44t12.5 -41q5 1 10 1h9q50 0 85 -35t35 -85q0 -14 -3 -26.5t-8 -24.5q37 -27 80 -44.5t91 -22.5v198q0 17 -11.5 28.5t-28.5 11.5q-66 0 -113 47t-47 113t47 113t113 47h40q0 33 23.5 56.5t56.5 23.5h160q33 0 56.5 -23.5t23.5 -56.5h40q17 0 28.5 -11.5 t11.5 -28.5t-11.5 -28.5t-28.5 -11.5h-40q0 -33 -23.5 -56.5t-56.5 -23.5h-160q-33 0 -56.5 23.5t-23.5 56.5h-40q-33 0 -56.5 -23.5t-23.5 -56.5t23.5 -56.5t56.5 -23.5q50 0 85 -35t35 -85v-198q87 10 158 57t113 120l-49 25l36 71l46 -23q5 17 8.5 35t5.5 37l80 -8 q-2 -26 -8 -51t-14 -49l42 -21l-36 -71l-38 19q-57 -101 -159 -162t-225 -61zM520 680v80v0v0v-80v0zM160 320v0v0v0z" />
<glyph unicode="vitals" d="M360 160q-19 0 -34 11t-22 28l-92 241h-172v80h228l92 -244l184 485q7 17 22 28t34 11t34 -11t22 -28l92 -241h172v-80h-228l-92 244l-184 -485q-7 -17 -22 -28t-34 -11z" />
<glyph unicode="ward" d="M120 880h80q17 0 28.5 -11.5t11.5 -28.5v-760q-33 0 -56.5 23.5t-23.5 56.5v640h-40q-17 0 -28.5 11.5t-11.5 28.5t11.5 28.5t28.5 11.5zM360 80q-33 0 -56.5 23.5t-23.5 56.5v640q0 33 23.5 56.5t56.5 23.5h360q33 0 56.5 -23.5t23.5 -56.5v-640q0 -33 -23.5 -56.5 t-56.5 -23.5h-360zM360 539q18 11 38 16t42 5h200q22 0 42 -5t38 -16v261v0h-360v0v-261zM540 600q-33 0 -56.5 23.5t-23.5 56.5t23.5 56.5t56.5 23.5t56.5 -23.5t23.5 -56.5t-23.5 -56.5t-56.5 -23.5zM360 160h360v0v240q0 33 -23.5 56.5t-56.5 23.5h-200 q-33 0 -56.5 -23.5t-23.5 -56.5v-240v0zM500 200h80v80h80v80h-80v80h-80v-80h-80v-80h80v-80zM360 160h24h56h200h56h24v0h-360z" />
<glyph unicode="weight" d="M240 200h480v0l-57 400v0h-366v0l-57 -400v0zM480 680q17 0 28.5 11.5t11.5 28.5t-11.5 28.5t-28.5 11.5t-28.5 -11.5t-11.5 -28.5t11.5 -28.5t28.5 -11.5zM593 680h70q30 0 52 -20t27 -49l57 -400q5 -36 -18.5 -63.5t-60.5 -27.5h-480q-37 0 -60.5 27.5t-18.5 63.5 l57 400q5 29 27 49t52 20h70q-3 10 -5 19.5t-2 20.5q0 50 35 85t85 35t85 -35t35 -85q0 -11 -2 -20.5t-5 -19.5zM240 200v0h480v0v0h-480z" />
<glyph unicode="woman" d="M400 80v240h-120l122 308q10 24 31 38t47 14t47 -14t31 -38l122 -308h-120v-240h-160zM480 720q-33 0 -56.5 23.5t-23.5 56.5t23.5 56.5t56.5 23.5t56.5 -23.5t23.5 -56.5t-23.5 -56.5t-56.5 -23.5z" />
<glyph unicode="wounds_injuries" d="M136 80l-56 56l88 88l-88 24l21 77l87 -24l-23 88l77 21l24 -88l137 137l-88 24l21 77l87 -23l-23 87l77 21l24 -88l137 137l-88 24l21 77l88 -23l-24 87l77 21l24 -88l88 88l56 -56l-88 -88l88 -24l-21 -77l-87 24l23 -88l-77 -21l-24 88l-137 -137l88 -24l-21 -77 l-87 23l23 -87l-77 -21l-24 88l-137 -137l88 -24l-21 -77l-88 23l24 -87l-77 -21l-24 88z" />
<glyph unicode="add" d="M440 440h-240v80h240v240h80v-240h240v-80h-240v-240h-80v240z" />
<glyph unicode="add_box" d="M440 280h80v160h160v80h-160v160h-80v-160h-160v-80h160v-160zM200 120q-33 0 -56.5 23.5t-23.5 56.5v560q0 33 23.5 56.5t56.5 23.5h560q33 0 56.5 -23.5t23.5 -56.5v-560q0 -33 -23.5 -56.5t-56.5 -23.5h-560zM200 200h560v0v560v0h-560v0v-560v0zM200 760v-560v0v0 v560v0z" />
<glyph unicode="add_circle_outline" d="M440 280h80v160h160v80h-160v160h-80v-160h-160v-80h160v-160zM480 80q-83 0 -156 31.5t-127 85.5t-85.5 127t-31.5 156t31.5 156t85.5 127t127 85.5t156 31.5t156 -31.5t127 -85.5t85.5 -127t31.5 -156t-31.5 -156t-85.5 -127t-127 -85.5t-156 -31.5zM480 160 q134 0 227 93t93 227t-93 227t-227 93t-227 -93t-93 -227t93 -227t227 -93zM480 480v0v0v0z" />
<glyph unicode="archive" d="M480 240l160 160l-56 56l-64 -64v168h-80v-168l-64 64l-56 -56zM200 640v-440v0h560v0v440h-560zM200 120q-33 0 -56.5 23.5t-23.5 56.5v499q0 14 4.5 27t13.5 24l50 61q11 14 27.5 21.5t34.5 7.5h460q18 0 34.5 -7.5t27.5 -21.5l50 -61q9 -11 13.5 -24t4.5 -27v-499 q0 -33 -23.5 -56.5t-56.5 -23.5h-560zM216 720h528l-34 40v0h-460v0zM480 420v0v0v0z" />
<glyph unicode="backspace" d="M360 200q-20 0 -37.5 9t-28.5 25l-174 246l174 246q11 16 28.5 25t37.5 9h400q33 0 56.5 -23.5t23.5 -56.5v-400q0 -33 -23.5 -56.5t-56.5 -23.5h-400zM760 280v200v200v0v0v-400v0zM360 280h400v0v400v0h-400v0l-142 -200l142 -200v0zM456 320l104 104l104 -104l56 56 l-104 104l104 104l-56 56l-104 -104l-104 104l-56 -56l104 -104l-104 -104z" />
<glyph unicode="block" d="M480 80q-83 0 -156 31.5t-127 85.5t-85.5 127t-31.5 156t31.5 156t85.5 127t127 85.5t156 31.5t156 -31.5t127 -85.5t85.5 -127t31.5 -156t-31.5 -156t-85.5 -127t-127 -85.5t-156 -31.5zM480 160q54 0 104 17.5t92 50.5l-448 448q-33 -42 -50.5 -92t-17.5 -104 q0 -134 93 -227t227 -93zM732 284q33 42 50.5 92t17.5 104q0 134 -93 227t-227 93q-54 0 -104 -17.5t-92 -50.5z" />
<glyph unicode="content_copy" d="M360 240q-33 0 -56.5 23.5t-23.5 56.5v480q0 33 23.5 56.5t56.5 23.5h360q33 0 56.5 -23.5t23.5 -56.5v-480q0 -33 -23.5 -56.5t-56.5 -23.5h-360zM360 320h360v0v480v0h-360v0v-480v0zM200 80q-33 0 -56.5 23.5t-23.5 56.5v560h80v-560v0h440v-80h-440zM360 320v480v0v0 v-480v0z" />
<glyph unicode="content_cut" d="M760 120l-280 280l-94 -94q8 -15 11 -32t3 -34q0 -66 -47 -113t-113 -47t-113 47t-47 113t47 113t113 47q17 0 34 -3t32 -11l94 94l-94 94q-15 -8 -32 -11t-34 -3q-66 0 -113 47t-47 113t47 113t113 47t113 -47t47 -113q0 -17 -3 -34t-11 -32l494 -494v-40h-120zM600 520 l-80 80l240 240h120v-40zM240 640q33 0 56.5 23.5t23.5 56.5t-23.5 56.5t-56.5 23.5t-56.5 -23.5t-23.5 -56.5t23.5 -56.5t56.5 -23.5zM480 460q8 0 14 6t6 14t-6 14t-14 6t-14 -6t-6 -14t6 -14t14 -6zM240 160q33 0 56.5 23.5t23.5 56.5t-23.5 56.5t-56.5 23.5t-56.5 -23.5 t-23.5 -56.5t23.5 -56.5t56.5 -23.5z" />
<glyph unicode="content_paste" d="M200 120q-33 0 -56.5 23.5t-23.5 56.5v560q0 33 23.5 56.5t56.5 23.5h167q11 35 43 57.5t70 22.5q40 0 71.5 -22.5t42.5 -57.5h166q33 0 56.5 -23.5t23.5 -56.5v-560q0 -33 -23.5 -56.5t-56.5 -23.5h-560zM200 200h560v0v560v0h-80v-120h-400v120h-80v0v-560v0zM480 760 q17 0 28.5 11.5t11.5 28.5t-11.5 28.5t-28.5 11.5t-28.5 -11.5t-11.5 -28.5t11.5 -28.5t28.5 -11.5z" />
<glyph unicode="drafts" d="M480 920l362 -216q18 -11 28 -30t10 -40v-434q0 -33 -23.5 -56.5t-56.5 -23.5h-640q-33 0 -56.5 23.5t-23.5 56.5v434q0 21 10 40t28 30zM480 454l312 186l-312 186l-312 -186zM480 360l-320 192v-352v0h640v0v352zM480 200h320v0h-640v0h320z" />
<glyph unicode="filter_list" d="M400 240v80h160v-80h-160zM240 440v80h480v-80h-480zM120 640v80h720v-80h-720z" />
<glyph unicode="gesture" d="M554 118q-53 0 -90.5 36.5t-37.5 89.5q0 30 13 64t39.5 64.5t67 54t95.5 32.5q-3 40 -19 56.5t-40 16.5q-30 0 -65 -25t-83 -82q-78 -93 -114.5 -121t-78.5 -28q-51 0 -86 37.5t-35 90.5t23.5 109t79.5 134q18 26 27.5 44t9.5 29q0 7 -2.5 10.5t-7.5 3.5q-10 0 -25 -12.5 t-35 -37.5l-70 70q32 39 65 59.5t65 20.5q47 0 78.5 -32.5t31.5 -79.5q0 -29 -15 -63.5t-50 -82.5q-38 -54 -56.5 -95t-18.5 -70q0 -17 5.5 -26t15.5 -9q12 0 33.5 20.5t86.5 96.5q63 75 114 107t107 32q77 0 115.5 -51t43.5 -117h99v-100h-99q-6 -88 -49 -167t-138 -79z M556 218q39 0 58.5 44.5t25.5 94.5q-56 -14 -85 -48.5t-29 -60.5q0 -14 8 -22t22 -8z" />
<glyph unicode="inbox" d="M200 120q-33 0 -56.5 23.5t-23.5 56.5v560q0 33 23.5 56.5t56.5 23.5h560q33 0 56.5 -23.5t23.5 -56.5v-560q0 -33 -23.5 -56.5t-56.5 -23.5h-560zM200 200h560v0v120h-120q-30 -38 -71.5 -59t-88.5 -21t-88.5 21t-71.5 59h-120v-120v0zM480 320q38 0 69 22t43 58h168 v360v0h-560v0v-360h168q12 -36 43 -58t69 -22zM200 200h120h72h88h88h72h120v0h-560z" />
<glyph unicode="redo" d="M396 200q-97 0 -166.5 63t-69.5 157t69.5 157t166.5 63h252l-104 104l56 56l200 -200l-200 -200l-56 56l104 104h-252q-63 0 -109.5 -40t-46.5 -100t46.5 -100t109.5 -40h284v-80h-284z" />
<glyph unicode="remove" d="M200 440v80h560v-80h-560z" />
<glyph unicode="do_not_disturb_on" d="M280 440h400v80h-400v-80zM480 80q-83 0 -156 31.5t-127 85.5t-85.5 127t-31.5 156t31.5 156t85.5 127t127 85.5t156 31.5t156 -31.5t127 -85.5t85.5 -127t31.5 -156t-31.5 -156t-85.5 -127t-127 -85.5t-156 -31.5zM480 160q134 0 227 93t93 227t-93 227t-227 93 t-227 -93t-93 -227t93 -227t227 -93zM480 480v0v0v0z" />
<glyph unicode="reply" d="M760 200v160q0 50 -35 85t-85 35h-367l144 -144l-57 -56l-240 240l240 240l57 -56l-144 -144h367q83 0 141.5 -58.5t58.5 -141.5v-160h-80z" />
<glyph unicode="reply_all" d="M320 280l-240 240l240 240l57 -56l-184 -184l184 -184zM800 200v160q0 50 -35 85t-85 35h-247l144 -144l-57 -56l-240 240l240 240l57 -56l-144 -144h247q83 0 141.5 -58.5t58.5 -141.5v-160h-80z" />
<glyph unicode="save" d="M840 680v-480q0 -33 -23.5 -56.5t-56.5 -23.5h-560q-33 0 -56.5 23.5t-23.5 56.5v560q0 33 23.5 56.5t56.5 23.5h480zM760 646l-114 114h-446v0v-560v0h560v0v446zM480 240q50 0 85 35t35 85t-35 85t-85 35t-85 -35t-35 -85t35 -85t85 -35zM240 560h360v160h-360v-160z M200 646v-446v0v0v560v0v-114z" />
<glyph unicode="select_all" d="M280 280v400h400v-400h-400zM360 360h240v240h-240v-240zM200 120q-33 0 -56.5 23.5t-23.5 56.5h80v-80zM120 760q0 33 23.5 56.5t56.5 23.5v-80h-80zM280 120v80h80v-80h-80zM280 760v80h80v-80h-80zM440 120v80h80v-80h-80zM440 760v80h80v-80h-80zM600 120v80h80v-80 h-80zM600 760v80h80v-80h-80zM760 120v80h80q0 -33 -23.5 -56.5t-56.5 -23.5zM760 760v80q33 0 56.5 -23.5t23.5 -56.5h-80zM120 280v80h80v-80h-80zM120 440v80h80v-80h-80zM120 600v80h80v-80h-80zM760 280v80h80v-80h-80zM760 440v80h80v-80h-80zM760 600v80h80v-80h-80z " />
<glyph unicode="send" d="M120 160v640l760 -320zM200 280l474 200l-474 200v-140l240 -60l-240 -60v-140zM200 280v200v200v-140v-120v-140z" />
<glyph unicode="sort" d="M120 240v80h240v-80h-240zM120 440v80h480v-80h-480zM120 640v80h720v-80h-720z" />
<glyph unicode="text_format" d="M200 200v80h560v-80h-560zM276 360l164 440h80l164 -440h-76l-38 112h-178l-40 -112h-76zM414 536h132l-64 182h-4z" />
<glyph unicode="undo" d="M280 200v80h284q63 0 109.5 40t46.5 100t-46.5 100t-109.5 40h-252l104 -104l-56 -56l-200 200l200 200l56 -56l-104 -104h252q97 0 166.5 -63t69.5 -157t-69.5 -157t-166.5 -63h-284z" />
<glyph unicode="font_download" d="M256 240h84l44 122h192l44 -122h84l-182 480h-84zM408 432l70 198h4l70 -198h-144zM160 80q-33 0 -56.5 23.5t-23.5 56.5v640q0 33 23.5 56.5t56.5 23.5h640q33 0 56.5 -23.5t23.5 -56.5v-640q0 -33 -23.5 -56.5t-56.5 -23.5h-640zM160 160h640v0v640v0h-640v0v-640v0z M160 800v-640v0v0v640v0z" />
<glyph unicode="move_to_inbox" d="M200 120q-33 0 -56.5 23.5t-23.5 56.5v560q0 33 23.5 56.5t56.5 23.5h560q33 0 56.5 -23.5t23.5 -56.5v-560q0 -33 -23.5 -56.5t-56.5 -23.5h-560zM200 200h560v0v120h-120q-30 -38 -71.5 -59t-88.5 -21t-88.5 21t-71.5 59h-120v-120v0zM480 320q38 0 69 22t43 58h168 v360v0h-560v0v-360h168q12 -36 43 -58t69 -22zM480 400l-160 160l56 58l64 -64v166h80v-166l64 64l56 -58zM200 200h120h72h88h88h72h120v0h-560z" />
<glyph unicode="unarchive" d="M480 560l-160 -160l56 -56l64 64v-168h80v168l64 -64l56 56zM200 640v-440v0h560v0v440h-560zM200 120q-33 0 -56.5 23.5t-23.5 56.5v499q0 14 4.5 27t13.5 24l50 61q11 14 27.5 21.5t34.5 7.5h460q18 0 34.5 -7.5t27.5 -21.5l50 -61q9 -11 13.5 -24t4.5 -27v-499 q0 -33 -23.5 -56.5t-56.5 -23.5h-560zM216 720h528l-34 40v0h-460v0zM480 420v0v0v0z" />
<glyph unicode="next_week" d="M440 260l160 160l-160 160l-56 -56l104 -104l-104 -104zM160 120q-33 0 -56.5 23.5t-23.5 56.5v440q0 33 23.5 56.5t56.5 23.5h160v80q0 33 23.5 56.5t56.5 23.5h160q33 0 56.5 -23.5t23.5 -56.5v-80h160q33 0 56.5 -23.5t23.5 -56.5v-440q0 -33 -23.5 -56.5t-56.5 -23.5 h-640zM160 200h640v0v440v0h-640v0v-440v0zM400 720h160v80v0h-160v0v-80zM160 200v440v0v0v-440v0z" />
<glyph unicode="weekend" d="M160 680q0 50 35 85t85 35h400q50 0 85 -35t35 -85v-80q50 0 85 -35t35 -85v-200q0 -50 -35 -85t-85 -35h-640q-50 0 -85 35t-35 85v200q0 50 35 85t85 35v80zM240 680v-112q18 -17 29 -39t11 -49v-80h400v80q0 27 11 49t29 39v112q0 17 -11.5 28.5t-28.5 11.5h-400 q-17 0 -28.5 -11.5t-11.5 -28.5zM760 320h-560v160q0 8 -3 15.5t-8.5 13t-13 8.5t-15.5 3q-17 0 -28.5 -11.5t-11.5 -28.5v-200q0 -17 11.5 -28.5t28.5 -11.5h640q17 0 28.5 11.5t11.5 28.5v200q0 17 -11.5 28.5t-28.5 11.5q-8 0 -15.5 -3t-13 -8.5t-8.5 -13t-3 -15.5v-160z M480 320v0v0v0v0v0v0v0v0zM480 240v0v0v0v0v0v0v0v0v0v0zM480 400v0v0v0v0v0v0z" />
<glyph unicode="delete_sweep" d="M600 240v80h160v-80h-160zM600 560v80h280v-80h-280zM600 400v80h240v-80h-240zM120 640h-40v80h160v60h160v-60h160v-80h-40v-360q0 -33 -23.5 -56.5t-56.5 -23.5h-240q-33 0 -56.5 23.5t-23.5 56.5v360zM200 640v-360v0h240v0v360h-240zM200 640v-360v0v0v360z" />
<glyph unicode="low_priority" d="M160 501q0 -71 47.5 -122t118.5 -57l-62 62l56 56l160 -160l-160 -160l-56 56l64 64q-105 6 -176.5 81t-71.5 179q0 109 75.5 184.5t184.5 75.5h140v-80h-140q-75 0 -127.5 -52t-52.5 -127zM560 240v80h320v-80h-320zM560 460v80h320v-80h-320zM560 680v80h320v-80h-320z " />
</font>
</defs>
</svg>
